<?xml version="1.0" standalone="no"?>
<!DOCTYPE svg PUBLIC "-//W3C//DTD SVG 20010904//EN"
 "http://www.w3.org/TR/2001/REC-SVG-20010904/DTD/svg10.dtd">
<svg version="1.0" xmlns="http://www.w3.org/2000/svg"
 width="700.000000pt" height="700.000000pt" viewBox="0 0 700.000000 700.000000"
 preserveAspectRatio="xMidYMid meet">
<metadata>
Created by potrace 1.11, written by Peter Selinger 2001-2013
</metadata>
<g transform="translate(0.000000,700.000000) scale(0.100000,-0.100000)"
fill="#000000" stroke="none">
<path d="M4206 6555 c-168 -48 -320 -188 -427 -394 -47 -89 -45 -129 9 -255
47 -106 100 -303 126 -456 65 -396 42 -934 -59 -1375 -34 -151 -33 -167 12
-204 43 -36 67 -41 58 -12 -9 31 14 234 45 392 113 566 429 1318 836 1992 46
76 84 140 84 142 0 9 -94 58 -172 92 -174 73 -407 109 -512 78z"/>
<path d="M4946 6168 c-304 -579 -638 -1430 -775 -1973 -47 -188 -90 -455 -72
-455 27 0 75 85 111 195 99 303 374 796 719 1290 200 286 360 488 558 702 112
121 138 159 127 188 -8 19 -26 23 -139 29 -107 5 -162 23 -326 106 -66 33
-122 60 -124 60 -2 0 -38 -64 -79 -142z"/>
<path d="M3208 5946 c-57 -20 -120 -61 -162 -105 l-40 -41 38 -82 c261 -568
460 -1270 483 -1705 5 -111 8 -123 25 -123 82 0 129 250 148 783 19 552 -36
918 -169 1124 -88 136 -207 190 -323 149z"/>
<path d="M5860 5917 c-93 -46 -255 -236 -483 -565 -154 -223 -260 -395 -345
-563 -58 -116 -74 -156 -75 -195 -2 -36 2 -49 13 -51 8 -2 59 29 112 70 241
182 462 267 761 293 43 3 84 12 91 19 7 8 16 43 20 79 7 67 21 113 99 322 61
160 76 264 53 354 -22 87 -58 158 -107 214 -47 53 -70 57 -139 23z"/>
<path d="M2766 5514 c-102 -109 -191 -176 -324 -242 -67 -34 -94 -53 -99 -69
-10 -43 5 -70 59 -104 293 -185 565 -595 748 -1129 24 -69 47 -129 52 -134 13
-15 9 106 -7 249 -40 338 -140 838 -246 1225 -24 88 -89 300 -92 300 -1 0 -42
-43 -91 -96z"/>
<path d="M2010 5111 c-180 -77 -390 -264 -390 -346 0 -39 38 -76 97 -95 90
-29 276 -106 378 -157 391 -195 662 -425 870 -740 26 -40 52 -70 56 -67 23 14
0 201 -42 338 -102 333 -386 728 -740 1028 -91 77 -127 83 -229 39z"/>
<path d="M5965 4656 c-546 -75 -1291 -568 -1654 -1095 -28 -41 -51 -78 -51
-81 0 -4 28 -3 63 2 125 19 416 -8 632 -57 358 -82 757 -250 1035 -434 47 -31
88 -57 92 -59 4 -2 21 25 39 60 38 75 117 194 255 383 137 188 188 270 239
378 59 126 78 209 79 337 1 293 -173 513 -447 565 -92 17 -158 18 -282 1z"/>
<path d="M770 4449 c-153 -11 -270 -43 -399 -108 -120 -61 -137 -105 -71 -188
l40 -51 137 -6 c195 -10 503 -42 743 -77 791 -116 1332 -328 1568 -614 l33
-40 19 25 c47 60 20 100 -176 264 -550 457 -1179 760 -1643 791 -47 3 -102 7
-121 9 -19 1 -78 -1 -130 -5z"/>
<path d="M470 3925 c0 -3 17 -32 39 -63 57 -84 154 -273 200 -388 72 -184 117
-366 141 -584 20 -175 37 -188 183 -146 402 115 1130 111 1507 -10 78 -25 145
-31 155 -14 3 5 6 62 6 127 l1 117 -72 78 c-346 378 -1123 728 -1890 852 -187
30 -270 40 -270 31z"/>
<path d="M3422 3600 c-113 -30 -206 -84 -292 -170 -121 -120 -170 -241 -170
-416 0 -67 5 -100 20 -133 56 -122 153 -204 287 -240 94 -25 137 -26 234 -6
147 31 275 121 362 253 84 127 120 243 119 387 0 193 -67 283 -243 330 -77 21
-228 18 -317 -5z"/>
<path d="M4215 3150 c-107 -17 -102 -13 -109 -82 -4 -35 -10 -73 -12 -84 -5
-18 2 -25 43 -40 195 -73 423 -243 709 -528 271 -271 502 -556 694 -853 39
-62 76 -113 81 -113 16 0 133 123 171 181 128 193 226 525 231 783 l2 99 -106
72 c-428 289 -864 486 -1224 551 -105 19 -392 27 -480 14z"/>
<path d="M4245 2603 c225 -295 357 -643 394 -1046 6 -59 15 -116 21 -127 11
-21 113 -57 245 -86 106 -23 348 -24 459 -1 43 9 81 19 84 22 12 12 -225 333
-362 490 -245 282 -493 514 -783 733 -45 34 -85 62 -88 62 -4 0 9 -21 30 -47z"/>
<path d="M3877 2576 c-109 -77 -299 -154 -440 -176 l-73 -12 0 -287 c0 -473
-51 -868 -165 -1294 -16 -59 -29 -111 -29 -116 0 -11 236 -68 339 -82 121 -16
350 -6 426 19 225 74 360 216 429 455 85 291 29 722 -141 1102 -96 212 -239
425 -288 425 -5 0 -32 -15 -58 -34z"/>
<path d="M2160 2563 c-368 -12 -999 -110 -1188 -185 -67 -26 -76 -43 -68 -132
24 -262 151 -412 393 -462 360 -75 1006 167 1415 528 81 72 105 116 86 156
-21 44 -91 72 -205 82 -111 10 -321 16 -433 13z"/>
<path d="M3006 2358 c-8 -13 -20 -66 -26 -118 -45 -398 -180 -783 -428 -1219
-136 -240 -273 -435 -429 -609 -94 -104 -104 -134 -57 -171 74 -58 196 -3 457
206 188 151 315 232 408 262 l36 12 21 107 c42 211 72 437 93 692 13 160 17
712 5 803 -7 55 -9 57 -36 57 -20 0 -35 -8 -44 -22z"/>
<path d="M2683 2100 c-38 -33 -104 -92 -148 -131 -196 -174 -443 -303 -736
-383 -61 -17 -112 -59 -135 -112 -44 -104 -44 -523 1 -734 38 -177 55 -202
118 -169 141 75 537 628 798 1114 96 178 199 409 199 444 0 45 -20 39 -97 -29z"/>
</g>
</svg>
