<?xml version="1.0" encoding="utf-8"?>
<!-- Generator: Adobe Illustrator 22.0.1, SVG Export Plug-In . SVG Version: 6.00 Build 0)  -->
<svg version="1.1" id="hexo" xmlns="http://www.w3.org/2000/svg" xmlns:xlink="http://www.w3.org/1999/xlink" x="0px" y="0px"
	 viewBox="0 0 6270.8 2500" style="enable-background:new 0 0 6270.8 2500;" xml:space="preserve">
<style type="text/css">
	.st0{fill:#0E83CD;}
</style>
<path class="st0" d="M1084.8,0.3l-1080,625L5,1873.4l1082.4,622.4l1080-625V623.4L1084.8,0.3L1084.8,0.3z M578.2,1788.4l0.1-539.7
	l0.1-539.7l98.1-57.3l93.9,55.6l1,220.5l1,220.6H1400l1-220.4l1-220.4l95.4-55.1l96.7,56.6l-0.1,539.4v539.4l-95.7,53.5L1402,1787
	l-1-219.3l-1-219.3H772.4l-1,219.3l0.3,220.4l-96.2,56.5L578.2,1788.4L578.2,1788.4z"/>
<path class="st0" d="M2621.2,1783.8V710h130.1v432.7h484.3V710h130.1v1073.8h-130.1V1260h-484.3v523.8H2621.2z M3626.2,1783.8V710
	h645.3v117.3h-515.2v313.2h453.5v117.3h-453.5v408.8h515.2v117.3h-645.3V1783.8z M5139.4,1783.8l-258.9-433.6l-258.9,433.6H4470
	l343.5-549L4500.7,710h148.9l245.5,412.1L5142,710h150.3l-328.7,526.2l324.7,547.7L5139.4,1783.8L5139.4,1783.8z M5885.3,1797.5
	c-123.4,0-216.4-32-279.1-95.9c-62.6-63.9-93.9-158.5-93.9-283.7v-339.4c0-126.1,31.5-221.1,94.6-285.1s156.3-95.9,279.7-95.9
	c122.5,0,214.9,32,277,95.9s93.3,159,93.3,285.1v339.4c0,125.2-31.3,219.8-93.9,283.7C6100.4,1765.5,6007.8,1797.5,5885.3,1797.5z
	 M5885.3,1680.2c86.8,0,148.7-20.3,185.8-61c37.1-40.6,55.7-107.8,55.7-201.6v-338.9c0-93.8-18.6-161.2-55.7-202.3
	s-99.1-61.6-185.8-61.6c-87.6,0-150,20.6-187.2,61.6s-55.7,108.5-55.7,202.3v338.9c0,93.8,18.6,161,55.7,201.6
	C5735.3,1659.9,5797.7,1680.2,5885.3,1680.2z"/>
</svg>
