<svg id="hexo" xmlns="http://www.w3.org/2000/svg" viewBox="0 0 6252.1 2495.5"><title>Hexo Logo</title><path d="M1080,0,0,625,.2,1873.1l1082.4,622.4,1080-625V623.1ZM573.4,1788.1l.1-539.7.1-539.7,98.1-57.3L765.6,707l1,220.5,1,220.6h627.6l1-220.4,1-220.4,95.4-55.1,96.7,56.6-.1,539.4v539.4l-95.7,53.5-96.3-54.4-1-219.3-1-219.3H767.6l-1,219.3.3,220.4-96.2,56.5Z" fill="#0e83cd"/><path d="M2616.4,1783.5V709.7h130.1v432.7h484.3V709.7h130.1V1783.5H3230.8V1259.7H2746.5v523.8Zm1005,0V709.7h645.3V827H3751.5v313.2H4205v117.3H3751.5v408.8h515.2v117.3H3621.4Zm1513.2,0-258.9-433.6-258.9,433.6H4465.2l343.5-549L4495.9,709.7h148.9l245.5,412.1,246.9-412.1h150.3l-328.7,526.2,324.7,547.7H5134.6Zm745.9,13.7q-185.1,0-279.1-95.9-93.9-95.85-93.9-283.7V1078.2q0-189.15,94.6-285.1,94.65-96,279.7-95.9,183.75,0,277,95.9,93.15,95.85,93.3,285.1v339.4q0,187.8-93.9,283.7Q6064.3,1797.15,5880.5,1797.2Zm0-117.3q130.2,0,185.8-61,55.649-60.9,55.7-201.6V1078.4q0-140.7-55.7-202.3-55.65-61.65-185.8-61.6-131.4,0-187.2,61.6-55.8,61.5-55.7,202.3v338.9q0,140.7,55.7,201.6Q5749.1,1679.95,5880.5,1679.9Z" fill="#0e83cd" /></svg>
