<svg xmlns="http://www.w3.org/2000/svg" viewBox="0 0 512 512">
  <title>Interner Link</title>
  <path id="eck" d="M1.4,433V81a48.01238,48.01238,0,0,1,48-48h53.32568V81H55.4a6.01761,6.01761,0,0,0-6,6V427a6.01765,6.01765,0,0,0,6,6h47.32568v48H49.4A48.01238,48.01238,0,0,1,1.4,433Zm508.46284-1V80a48.01238,48.01238,0,0,0-48-48H408.53716V80h47.32568a6.01761,6.01761,0,0,1,6,6V426a6.01765,6.01765,0,0,1-6,6H408.53716v48h53.32568A48.01238,48.01238,0,0,0,509.86284,432Z" />
  <path fill="currentColor" id="aright" d="M130.4875,275.97779v-40a12.03527,12.03527,0,0,1,12-12h116v-67a12.02166,12.02166,0,0,1,20.5-8.5l99,99a12.01071,12.01071,0,0,1,0,17l-99,99a12.00019,12.00019,0,0,1-20.5-8.5v-67h-116A12.03527,12.03527,0,0,1,130.4875,275.97779Z" />
</svg>
