<svg xmlns="http://www.w3.org/2000/svg" viewBox="0 0 512 512">
  <title>Wikipedia Link</title>
  <path class="eck" d="M464,480H410.67432V432H458a6.01765,6.01765,0,0,0,6-6V86a6.01761,6.01761,0,0,0-6-6H410.67432V32H464a48.01238,48.01238,0,0,1,48,48V432A48.01238,48.01238,0,0,1,464,480ZM48,480h53.32568V432H54a6.01765,6.01765,0,0,1-6-6V86a6.01761,6.01761,0,0,1,6-6h47.32568V32H48A48.01238,48.01238,0,0,0,0,80V432A48.01238,48.01238,0,0,0,48,480Z" />
  <path fill="currentColor" d="M421,155.02638a5.36094,5.36094,0,0,1-1.10289,3.25066,3.13392,3.13392,0,0,1-2.438,1.45119c-7.22691.69657-13.17678,3.01847-17.76252,6.99473q-6.92218,5.92083-14.25067,22.66754L310.56466,358.13457c-.49343,1.56729-1.85752,2.35092-4.12139,2.35092a4.61617,4.61617,0,0,1-4.12137-2.35092l-41.99737-87.82586L212.029,358.13457a4.61616,4.61616,0,0,1-4.12137,2.35092q-3.22164,0-4.26649-2.35092L130.066,189.3905q-6.87864-15.71637-14.5409-21.94195c-5.07916-4.15039-12.19-6.73351-21.27441-7.72032a2.83826,2.83826,0,0,1-2.2058-1.248A4.25363,4.25363,0,0,1,91,155.63588c0-2.75726.78364-4.12137,2.35092-4.12137q9.83906,0,20.57784.87071,9.96966.91425,18.77837.89974,8.96834,0,21.1583-.89974,12.75594-.8707,22.6095-.87071c1.56729,0,2.35093,1.36411,2.35093,4.12137,0,2.72824-.4934,4.09235-1.45119,4.09235-6.55936.4934-11.7256,2.17678-15.49868,4.99208a13.33416,13.33416,0,0,0-5.65963,11.17415,22.62231,22.62231,0,0,0,2.35092,8.79419L219.372,322l34.50923-65.18733L221.723,189.3905q-8.66358-18.02374-14.25066-23.27705c-3.715-3.45382-9.34564-5.60158-16.89182-6.38522a2.55125,2.55125,0,0,1-1.97361-1.248,4.48959,4.48959,0,0,1-.95778-2.84433c0-2.75726.66754-4.12137,2.06068-4.12137a172.21247,172.21247,0,0,1,18.05278.87071,147.71359,147.71359,0,0,0,16.89182.89974q8.7942,0,18.63324-.89974,10.14381-.8707,19.96834-.87071c1.56728,0,2.35092,1.36411,2.35092,4.12137,0,2.72824-.46437,4.09235-1.45119,4.09235q-19.67809,1.34961-19.6781,11.17414,0,4.3971,4.55673,13.64117l21.27441,43.18733L291.467,188.22955q4.39712-8.35884,4.4116-14.10554,0-13.49605-19.67809-14.39578c-1.19,0-1.77045-1.36411-1.77045-4.09235a4.9343,4.9343,0,0,1,.87072-2.78628c.60949-.89973,1.19-1.33509,1.77045-1.33509q7.05274,0,17.32718.87071c6.55935.6095,11.95777.89974,16.16623.89974,3.01845,0,7.48811-.26121,13.35091-.75462,7.43008-.66754,13.67019-1.01583,18.66228-1.01583,1.161,0,1.74142,1.16095,1.74142,3.51187q0,4.70186-3.22164,4.70185-11.44986,1.17546-18.43008,6.32717-6.96569,5.13721-17.38522,23.3351l-28.21108,52.15568,38.19524,77.81267,56.39314-131.1293a35.461,35.461,0,0,0,2.9314-13.20581q0-14.41028-19.67809-15.29551c-1.19,0-1.77045-1.36411-1.77045-4.09235,0-2.75726.8707-4.12137,2.64115-4.12137q7.18338,0,17.03694.87071c6.066.6095,11.17414.89974,15.2665.89974a141.4506,141.4506,0,0,0,14.97624-.89974c5.89182-.58047,11.17414-.87071,15.876-.87071C420.30344,151.51451,421,152.67546,421,155.02638Z" />
</svg>
