<svg xmlns="http://www.w3.org/2000/svg" viewBox="0 0 512 512">
  <title>Link zum Internet-Shop</title>
    <path class="eck" d="M464,479.00081H410.67432v-48H458a6.01766,6.01766,0,0,0,6-6V85.00075a6.01761,6.01761,0,0,0-6-6H410.67432v-48H464a48.01238,48.01238,0,0,1,48,48V431.00081A48.01238,48.01238,0,0,1,464,479.00081Zm-416,0h53.32568v-48H54a6.01766,6.01766,0,0,1-6-6V85.00075a6.01761,6.01761,0,0,1,6-6h47.32568v-48H48a48.01238,48.01238,0,0,0-48,48V431.00081A48.01238,48.01238,0,0,0,48,479.00081Z" />
    <path fill="currentColor" class="basket" d="M368.52506,278.03007,391.505,176.91894a11.66684,11.66684,0,0,0-11.37647-14.2523H189.19279L184.7371,140.884a11.66641,11.66641,0,0,0-11.42993-9.32847h-49.8405A11.66657,11.66657,0,0,0,111.8,143.2222V151a11.66656,11.66656,0,0,0,11.66667,11.66666h33.97091l34.14835,166.94761a27.22509,27.22509,0,1,0,32.59132,4.16355H326.089a27.21531,27.21531,0,1,0,30.9157-5.058l2.68187-11.80084a11.66683,11.66683,0,0,0-11.37647-14.25229h-130.481l-3.18159-15.55556H357.14859A11.66618,11.66618,0,0,0,368.52506,278.03007Z" />
</svg>
