<svg id="Layer_1" data-name="Layer 1" xmlns="http://www.w3.org/2000/svg" xmlns:xlink="http://www.w3.org/1999/xlink" viewBox="0 0 831.705 349">
  <defs>
    <linearGradient id="Unbenannter_Verlauf" data-name="Unbenannter Verlauf" x1="528.379" y1="35.8" x2="591.535" y2="-27.356" gradientTransform="matrix(0.914, -0.406, -0.406, -0.914, 216.231, 407.477)" gradientUnits="userSpaceOnUse">
      <stop offset="0" stop-color="#919191"/>
      <stop offset="1" stop-color="#fff"/>
    </linearGradient>
    <linearGradient id="Unbenannter_Verlauf_2" data-name="Unbenannter Verlauf 2" x1="504.629" y1="-12.379" x2="542.864" y2="-50.613" gradientTransform="matrix(0.914, -0.406, -0.406, -0.914, 216.231, 407.477)" gradientUnits="userSpaceOnUse">
      <stop offset="0" stop-color="#900"/>
      <stop offset="1" stop-color="#e80000"/>
    </linearGradient>
  </defs>
  <title>Zeichenfläche 1</title>
  <g id="logo">
    <g id="logo-bg-light">
      <g id="test-tube">
        <path id="shadow" d="M745.116,12.363a4.55,4.55,0,0,0-.026,1.948s2.065,13.708-.279,19.809L645.135,293.291l.008,0a37.088,37.088,0,0,0,69.23,26.625l.009,0L814.057,60.751c1.949-5.07,13.064-14.892,13.064-14.892a4.553,4.553,0,0,0,1.285-1.464l.049-.1a3.615,3.615,0,0,0,.159-.325c2.57-6.683-14.008-19.279-37.028-28.132s-43.767-10.613-46.337-3.93c-.044.113-.068.231-.1.348Z" opacity="0.1" style="isolation: isolate"/>
        <path id="tube" d="M742.235,10.16a4.534,4.534,0,0,0-.026,1.948s2.065,13.709-.281,19.809L642.254,291.088l.008,0a37.089,37.089,0,0,0,69.231,26.625l.008,0L811.176,58.548c1.948-5.07,13.065-14.892,13.065-14.892a4.543,4.543,0,0,0,1.285-1.464l.048-.1a3.615,3.615,0,0,0,.159-.325c2.57-6.683-14.008-19.279-37.027-28.132S744.939,3.021,742.369,9.7c-.044.113-.068.231-.1.348Z" fill="url(#Unbenannter_Verlauf)"/>
        <path id="liquid" d="M773.5,127.407l-71.88,186.9.047.018a26.853,26.853,0,0,1-34.416,15.1c-13.687-5.264-21.094-21.015-16.053-34.512h0l45.93-119.426a53.028,53.028,0,0,1,17-15.836c11.263-6.583,20.552-5.193,33.058-10.752S773.5,127.407,773.5,127.407Z" fill="url(#Unbenannter_Verlauf_2)"/>
        <ellipse id="top" cx="783.869" cy="26.493" rx="7.29" ry="27.717" transform="translate(477.723 748.592) rotate(-68.96)" fill="#333"/>
        <path id="side-reflection" d="M742.208,12.107s2.035,13.787-.28,19.809L642.253,291.087l.009,0a37.085,37.085,0,0,0,31.449,49.925A37.1,37.1,0,0,1,661.278,298.4l-.009,0,97.7-254.031A63.026,63.026,0,0,1,742.208,12.107Z" fill="#fff" opacity="0.3" style="isolation: isolate"/>
        <g id="bubbles">
          <circle cx="710.117" cy="179.294" r="2.888" fill="#fff" opacity="0.5" style="isolation: isolate"/>
          <circle cx="729.049" cy="200.235" r="4.354" fill="#fff" opacity="0.5" style="isolation: isolate"/>
          <circle cx="700.148" cy="225.138" r="8.167" fill="#fff" opacity="0.5" style="isolation: isolate"/>
          <circle cx="686.924" cy="240.241" r="4.354" fill="#fff" opacity="0.5" style="isolation: isolate"/>
          <circle cx="704.268" cy="272.542" r="2.888" fill="#fff" opacity="0.5" style="isolation: isolate"/>
        </g>
      </g>
      <g id="jekyll-text">
        <g opacity="0.1">
          <path d="M196.089,163.366c4.415,3.528,12.361,1.47,17.659-4.411,5.592-6.175,6.475-14.115,2.06-17.644s-12.362-1.47-17.66,4.7C192.557,152.191,191.674,159.837,196.089,163.366Zm-12.95,11.469c-1.177,0-3.237,2.058-1.472,2.94,2.354.882,3.532,2.94,3.532,5.881-2.06,12.057-17.07,25.877-22.957,30.582-1.472,1.471.589,4.705,2.06,3.529,3.238-2.646,10.007-7.94,15.6-15-9.124,20.291-26.784,46.462-33.553,55.578-26.488,36.757-66.811,70.574-94.477,70.574-22.074,0-40.911-15-45.031-37.052-.294-2.352-3.532-2.94-2.943.294,5,30.289,28.255,42.051,56.51,42.051,30.9,0,67.178-22.392,87.126-45.306,32.279-37.078,53.265-79.67,47.673-103.782C192.852,176.011,186.671,174.54,183.139,174.835Zm198.579,80.63c8.535-2.058,15.6-6.835,15.6-14.222,0-.738-1.472-.738-1.472,0,0,4.433-5,8.046-10.6,8.929-13.245,2.059-39.439-13.474-51.8-29.353,13.245,5,40.322-2.326,52.978-11.442,11.773-8.527,16.482-17.924,17.365-25.569,1.471-12.645-12.362-19.989-31.493-12.638-12.361,5-27.077,15.882-42.382,36.172,16.188-26.759,47.974-70.279,79.172-98.214,37.967-33.817,60.042-27.347,25.9,8.529-14.128,14.7-40.616,33.817-58.864,42.051-5.592,2.353-2.943,5.588,1.177,3.823,19.426-8.528,45.326-26.171,60.925-40.875,46.209-44.4,7.652-77.926-43.559-30.876-34.73,32.053-57.393,65.575-77.112,109.1-6.77,8.233-11.773,15-17.954,20.29a15.119,15.119,0,0,0-1.794,1.87c-17,14.565-43.678,34.228-60.258,34.464-11.773.294-16.776-8.527-14.716-20,3.237-17.938,21.78-39.11,37.673-46.461,20.6-9.41,32.669,8.821,5.592,23.524-10.3,5.293-22.662,8.233-27.666,8.233-5.887,0-5.3,2.352-.294,2.646,8.241.294,21.486-3.234,30.315-7.352,27.666-13.232,29.432-37.934-.589-38.815-32.669-1.177-71.814,26.759-71.52,61.752.295,15.88,12.95,24.407,30.315,24.407,28.878-.262,54.708-22.28,75.827-41.643,3.032-2.522,5.961-5.294,8.888-8.218-7.358,18.82-11.184,36.169-9.418,49.108,1.178,9.41,6.476,13.82,10.6,17.35.883.588,2.649,0,1.471-1.765-6.181-7.352-4.414-29.166,4.121-50.338C325.208,244.05,352.874,261.935,381.718,255.465Zm-34.73-61.353c33.847-30.288,47.091-3.234,25.606,13.232-11.185,8.528-33.259,15-40.322,10.881l-1.472-.882a32.287,32.287,0,0,1-2.355-4.411A186.884,186.884,0,0,1,346.988,194.112Zm187.854-34.321c13.539,1.471,7.946-15-5.885-10.88-6.182,1.764-12.068,13.526-16.482,23.819-13.539,20.29-36.2,47.932-52.1,62.341-14.128,12.056-27.078,15.291-11.185-7.352,6.475-9.115,14.716-18.819,19.426-28.523,11.184-24.407-12.656-35.287-31.787-20.584-11.184,8.527-26.194,26.171-37.967,35.875-3.238,2.647-2.355,6.47.883,3.823,9.417-7.646,25.9-25,40.027-35.287,11.773-9.116,16.482-3.235,9.712,4.41-9.418,10.881-25.9,29.7-30.02,41.757-5.887,17.938,1.177,25.877,12.95,25.877,16.188,0,40.322-25.289,56.51-45.285,5.3-6.763,11.185-14.7,16.188-22.349-14.127,27.348-28.844,54.989-47.091,79.984-25.9,35.288-58.275,61.753-88.885,61.753-22.074,0-41.205-15-45.326-37.051-.294-2.354-3.237-2.941-2.943.293,5,30.289,28.255,42.051,56.51,42.051,30.9,0,60.63-17.938,81.527-39.992C501,250.068,506,200.078,518.951,172.142,524.835,159.791,530.427,159.2,534.842,159.791Zm171.09-42.815c6.181-10.586,5.887-18.82-8.535-18.82-10.89.294-30.609,7.939-39.733,15-2.061,2.059-1.178,3.235,1.472,2.059,1.766-.588,3.826-1.765,5.887-2.646,10.3-5.587,6.181,6.175,3.826,10.586-12.362,21.466-34.142,51.754-45.62,66.751a233.907,233.907,0,0,1-17.667,21.029c-11.054,10.485-32.883,29.062-49.4,35.313-53.566,20,14.716-71.162,20.309-78.514,12.655-15.88,40.911-43.521,49.445-57.342,6.182-10.586,5.887-18.82-8.534-18.82-10.891.294-30.609,7.94-39.733,15-2.061,2.059-1.178,3.234,1.471,2.059,1.767-.588,3.826-1.765,5.887-2.647,10.3-5.587,6.182,6.175,3.826,10.586-12.361,21.466-34.142,51.755-45.62,66.752-9.418,12.644-20.9,25.289-29.727,32.347-3.531,2.94-1.471,5.587,2.061,3.234,3.237-2.059,7.946-6.764,13.244-12.351-9.712,19.408-17.659,46.756,7.947,49.99,21.82,2.983,47.764-19.285,64.54-35.778,1.849-1.75,3.877-3.806,6.019-6.042.5-.515,1-1.019,1.473-1.507-9.695,19.4-17.587,46.684,7.984,49.914,27.961,3.822,62.691-33.817,76.229-47.639,2.649-2.647,1.766-7.057-2.648-2.647-7.947,8.234-34.73,32.641-54.155,39.993-53.566,19.995,14.716-71.163,20.308-78.515C669.141,158.438,697.4,130.8,705.932,116.976Z" fill="#333"/>
        </g>
        <path d="M193.263,160.539c4.415,3.529,12.361,1.471,17.659-4.411,5.592-6.175,6.475-14.115,2.06-17.643s-12.362-1.47-17.66,4.7C189.73,149.365,188.848,157.011,193.263,160.539Zm-12.951,11.469c-1.177,0-3.237,2.059-1.472,2.94,2.354.882,3.532,2.94,3.532,5.882-2.06,12.056-17.07,25.877-22.957,30.582-1.472,1.47.588,4.7,2.06,3.528,3.238-2.646,10.007-7.939,15.6-15-9.124,20.29-26.784,46.462-33.553,55.577-26.488,36.758-66.811,70.574-94.477,70.574-22.074,0-40.911-15-45.031-37.051-.294-2.354-3.532-2.94-2.943.294,5,30.288,28.255,42.05,56.51,42.05,30.9,0,67.178-22.392,87.126-45.306C176.986,249,197.972,206.412,192.38,182.3,190.025,173.184,183.845,171.714,180.312,172.008Zm198.579,80.631c8.535-2.059,15.6-6.835,15.6-14.222,0-.739-1.472-.739-1.472,0,0,4.432-5,8.046-10.595,8.928-13.245,2.059-39.439-13.473-51.8-29.352,13.245,5,40.322-2.326,52.978-11.441,11.773-8.528,16.482-17.925,17.365-25.57,1.471-12.645-12.362-19.989-31.493-12.638-12.361,5-27.077,15.883-42.382,36.173,16.188-26.76,47.974-70.279,79.172-98.215,37.967-33.817,60.042-27.347,25.9,8.529-14.128,14.7-40.617,33.817-58.865,42.051-5.592,2.353-2.943,5.587,1.177,3.822C393.9,152.177,419.8,134.533,435.4,119.83c46.208-44.4,7.652-77.926-43.56-30.876-34.73,32.053-57.393,65.575-77.112,109.1-6.77,8.233-11.773,15-17.954,20.29a14.974,14.974,0,0,0-1.794,1.869c-17,14.566-43.677,34.227-60.258,34.465-11.773.294-16.776-8.528-14.716-20,3.237-17.938,21.78-39.11,37.673-46.462,20.6-9.41,32.669,8.821,5.592,23.524-10.3,5.294-22.663,8.234-27.666,8.234-5.885,0-5.3,2.352-.294,2.646,8.241.294,21.486-3.235,30.315-7.352,27.667-13.233,29.432-37.934-.588-38.816-32.67-1.176-71.816,26.76-71.52,61.753.294,15.879,12.95,24.407,30.315,24.407,28.878-.263,54.707-22.281,75.826-41.644,3.032-2.522,5.961-5.293,8.888-8.217-7.358,18.819-11.184,36.169-9.418,49.108,1.178,9.41,6.476,13.821,10.6,17.35.883.588,2.648,0,1.471-1.764-6.181-7.352-4.415-29.166,4.121-50.338C322.381,241.223,350.048,259.107,378.891,252.639Zm-34.73-61.353c33.847-30.288,47.091-3.234,25.606,13.232-11.185,8.528-33.258,15-40.322,10.88l-1.472-.882a32.16,32.16,0,0,1-2.355-4.41A186.779,186.779,0,0,1,344.161,191.286Zm187.854-34.321c13.538,1.47,7.946-15-5.887-10.88-6.181,1.764-12.067,13.527-16.482,23.819-13.538,20.29-36.2,47.932-52.1,62.341-14.127,12.057-27.077,15.291-11.184-7.352,6.475-9.116,14.716-18.82,19.425-28.523,11.184-24.407-12.656-35.287-31.787-20.584-11.184,8.527-26.194,26.171-37.967,35.875-3.238,2.646-2.355,6.469.883,3.822,9.418-7.645,25.9-25,40.027-35.287,11.773-9.116,16.482-3.234,9.713,4.411-9.418,10.88-25.9,29.7-30.021,41.757-5.887,17.938,1.177,25.877,12.949,25.877,16.188,0,40.322-25.289,56.51-45.285,5.3-6.764,11.185-14.7,16.188-22.349-14.128,27.348-28.844,54.989-47.092,79.984-25.9,35.287-58.275,61.752-88.885,61.752-22.074,0-41.2-15-45.325-37.051-.3-2.352-3.238-2.94-2.944.294,5,30.288,28.255,42.05,56.51,42.05,30.9,0,60.63-17.938,81.527-39.991,42.088-44.4,47.092-94.393,60.042-122.329C522.008,156.965,527.6,156.376,532.015,156.965Zm171.09-42.816c6.182-10.586,5.886-18.82-8.534-18.82-10.891.294-30.609,7.939-39.733,15-2.06,2.058-1.178,3.234,1.471,2.058,1.767-.588,3.827-1.764,5.887-2.646,10.3-5.587,6.182,6.175,3.826,10.586-12.361,21.466-34.142,51.755-45.62,66.752a234.187,234.187,0,0,1-17.667,21.029c-11.053,10.485-32.883,29.062-49.4,35.313-53.567,20,14.716-71.163,20.308-78.515,12.656-15.879,40.911-43.521,49.446-57.342,6.181-10.586,5.886-18.82-8.535-18.82-10.89.294-30.609,7.939-39.733,15-2.061,2.059-1.178,3.234,1.472,2.059,1.766-.588,3.826-1.765,5.887-2.646,10.3-5.587,6.181,6.175,3.825,10.586-12.361,21.466-34.142,51.754-45.619,66.751-9.418,12.645-20.9,25.289-29.728,32.347-3.531,2.94-1.471,5.588,2.062,3.235,3.237-2.06,7.946-6.764,13.244-12.352-9.713,19.408-17.659,46.756,7.946,49.991,21.82,2.982,47.764-19.286,64.541-35.778,1.849-1.751,3.877-3.806,6.02-6.042q.756-.774,1.472-1.508c-9.695,19.4-17.587,46.684,7.985,49.914,27.961,3.822,62.69-33.817,76.229-47.638,2.648-2.646,1.766-7.058-2.649-2.646-7.946,8.233-34.729,32.641-54.154,39.992-53.567,20,14.716-71.163,20.308-78.515C666.315,155.611,694.57,127.97,703.105,114.149Z" fill="#333"/>
        <g id="highlight" opacity="0.3">
          <g>
            <path d="M604.469,213.891l-.412.427c-4.2,9.143-7.592,19.445-7.32,28.013.3-9.433,4.534-20.6,9.2-29.947Z" fill="#333"/>
            <path d="M524.037,207.736c-4.2,9.142-7.591,19.445-7.318,28.012.295-9.459,4.558-20.665,9.243-30.028Q524.984,206.751,524.037,207.736Z" fill="#333"/>
            <path d="M654.371,112.841c.136-.165.285-.335.466-.516,9.125-7.057,28.844-14.7,39.733-15,8.229,0,11.854,2.684,12.3,6.954.531-5.417-2.852-8.954-12.3-8.954-10.89.294-30.609,7.939-39.733,15C653.424,111.738,653.4,112.734,654.371,112.841Z" fill="#333"/>
            <path d="M687.506,210.013c-7.945,8.233-34.729,32.641-54.153,39.992-14.206,5.3-19.841,2.787-20.35-3.907-.462,8.146,4.812,11.707,20.35,5.907,19.424-7.352,46.208-31.759,54.153-39.992,2.147-2.146,3.453-2.2,3.93-1.386C692.182,208.421,690.877,206.645,687.506,210.013Z" fill="#333"/>
            <path d="M510.656,214.836c8.83-7.058,20.31-19.7,29.728-32.347,11.479-15,33.258-45.285,45.62-66.752,1.33-2.492,3.223-7.329,2.762-10.06a26.412,26.412,0,0,1-2.762,8.06c-12.362,21.466-34.143,51.754-45.62,66.752-9.418,12.644-20.9,25.289-29.728,32.347-1.883,1.568-2.166,3.045-1.493,3.732A6.039,6.039,0,0,1,510.656,214.836Z" fill="#333"/>
            <path d="M574.353,106.255c.138-.165.286-.335.466-.515,9.125-7.058,28.844-14.7,39.734-15,8.229,0,11.854,2.684,12.3,6.954.528-5.417-2.854-8.954-12.3-8.954-10.89.294-30.609,7.939-39.734,15C573.406,105.151,573.378,106.148,574.353,106.255Z" fill="#333"/>
            <path d="M666.02,122.324c1.33-2.492,3.223-7.329,2.762-10.059a26.4,26.4,0,0,1-2.762,8.059c-12.361,21.466-34.142,51.755-45.62,66.752a234.021,234.021,0,0,1-17.667,21.029c-11.052,10.485-32.883,29.061-49.4,35.313-14.2,5.3-19.84,2.787-20.349-3.907-.461,8.146,4.813,11.707,20.349,5.907,16.518-6.252,38.347-24.828,49.4-35.313A233.854,233.854,0,0,0,620.4,189.076C631.879,174.079,653.659,143.79,666.02,122.324Z" fill="#333"/>
          </g>
          <g>
            <path d="M457.552,232.244c-8.886,7.584-17.3,11.671-18.37,8.028-1.29,6.727,8.236,2.62,18.37-6.028,15.893-14.409,38.557-42.051,52.095-62.341,4.415-10.292,10.3-22.055,16.482-23.819,7.621-2.268,12.731,1.711,13.528,5.5.98-4.139-4.525-10.176-13.528-7.5-6.181,1.764-12.067,13.527-16.482,23.819C496.108,190.193,473.445,217.835,457.552,232.244Z" fill="#333"/>
            <path d="M449.655,179.412a12.346,12.346,0,0,1-2.993,5.194c-9.418,10.88-25.9,29.7-30.021,41.757a35.748,35.748,0,0,0-2.091,12.381,39.21,39.21,0,0,1,2.091-10.381c4.12-12.057,20.6-30.877,30.021-41.757C449.22,183.718,450.137,181.083,449.655,179.412Z" fill="#333"/>
            <path d="M396.039,213.66c11.773-9.7,26.783-27.348,37.967-35.875,15.421-11.852,33.888-7.074,34.62,8,.87-16.64-18.535-22.364-34.619-10-11.184,8.527-26.194,26.171-37.967,35.875-1.911,1.562-2.378,3.524-1.781,4.334A5.835,5.835,0,0,1,396.039,213.66Z" fill="#333"/>
            <path d="M318.163,290.222c.549-1.6,2.582-.866,2.824,1.07,4.12,22.055,23.251,37.051,45.325,37.051,30.61,0,62.986-26.465,88.885-61.752,18.248-25,32.964-52.637,47.092-79.984-1.411,2.155-2.9,4.334-4.414,6.5-12.8,24.541-26.319,49.074-42.678,71.48-25.9,35.287-58.275,61.752-88.885,61.752-22.074,0-41.2-15-45.325-37.051-.3-2.352-3.238-2.94-2.944.294C318.079,289.8,318.125,290.007,318.163,290.222Z" fill="#333"/>
          </g>
          <g>
            <path d="M263.273,211.74c-10.3,5.294-22.663,8.234-27.666,8.234-4.7,0-5.261,1.5-2.761,2.249a12.851,12.851,0,0,1,2.761-.249c5,0,17.365-2.94,27.666-8.234,11.909-6.466,16.244-13.614,15.613-18.794C278.331,199.878,273.715,206.07,263.273,211.74Z" fill="#333"/>
            <path d="M307.329,215.953c-5.539,14.862-8.75,28.675-8.607,39.965.25-11.732,3.885-25.968,9.827-41.166C308.143,215.158,307.735,215.554,307.329,215.953Z" fill="#333"/>
            <path d="M219.588,240.513c-.39,9.535,4.716,16.421,15.136,16.161,16.581-.237,43.261-19.9,60.258-34.465a14.766,14.766,0,0,1,1.794-1.869c6.181-5.293,11.184-12.057,17.954-20.29,19.72-43.521,42.382-77.044,77.112-109.1,34.491-31.688,63.238-26.826,64.218-6.708.864-21.762-28.612-28-64.218,4.708-34.73,32.053-57.393,65.575-77.112,109.1-6.77,8.233-11.773,15-17.954,20.29a14.9,14.9,0,0,0-1.794,1.869c-17,14.566-43.677,34.227-60.258,34.465C225.048,254.915,219.955,248.994,219.588,240.513Z" fill="#333"/>
            <path d="M373.3,156.881c-3.229,1.358-3.7,3.006-2.738,3.819a6.851,6.851,0,0,1,2.738-1.819c18.248-8.234,44.737-27.348,58.865-42.051,12.647-13.291,17.574-22.541,16.842-27.207-.646,5.083-5.8,13.6-16.842,25.207C418.036,129.533,391.547,148.647,373.3,156.881Z" fill="#333"/>
            <path d="M369.767,206.519c7.566-5.8,10.82-12.909,10.389-18.367-.4,5.121-3.717,11.254-10.389,16.367-11.184,8.528-33.258,15-40.322,10.88l-1.471-.882c-.623-1.036-1.24-2.073-1.759-3.109-.2.233-.4.463-.595.7a32.042,32.042,0,0,0,2.354,4.41l1.471.882C336.509,221.516,358.583,215.047,369.767,206.519Z" fill="#333"/>
            <path d="M393.018,238c0,5-5,8.255-10.595,9.137-12.5,1.942-36.513-11.67-49.571-26.562a20.929,20.929,0,0,1-2.23-.634c12.362,15.879,38.556,31.438,51.8,29.379,5.592-.883,10.595-4.483,10.595-8.916a.847.847,0,0,1,1.331-.524A9.833,9.833,0,0,0,394.49,238h-1.472Z" fill="#333"/>
            <path d="M265.039,178.453c14.172.417,21.252,6.143,21.876,13.463.573-8.252-6.437-15.009-21.876-15.463-32.67-1.176-71.815,26.76-71.52,61.753,0,.12.012.235.015.354C194.454,204.342,232.883,177.3,265.039,178.453Z" fill="#333"/>
            <path d="M369.473,168.343c-10.773,4.357-23.336,13.189-36.518,28.818-2.124,3.287-4.092,6.426-5.864,9.354,15.305-20.29,30.021-31.174,42.382-36.173,17.671-6.791,30.812-1.038,31.557,9.844C401.838,168.034,388.2,161.148,369.473,168.343Z" fill="#333"/>
            <path d="M307.533,263.673c-.115,6.95,1.041,12.514,3.552,15.626.51-.253.768-.87.112-1.853C308.854,274.659,307.656,269.792,307.533,263.673Z" fill="#333"/>
          </g>
          <g>
            <path d="M178.707,174.865a2.523,2.523,0,0,1,1.605-.857c3.532-.294,9.713,1.176,12.067,10.292a36.467,36.467,0,0,1,.882,7.2,38.265,38.265,0,0,0-.882-9.2c-2.354-9.116-8.535-10.586-12.067-10.292C179.169,172.008,177.205,173.945,178.707,174.865Z" fill="#333"/>
            <path d="M1.155,289.785c.575-1.344,2.627-.6,2.859,1.259C8.134,313.1,26.971,328.1,49.045,328.1c27.667,0,67.989-33.816,94.477-70.574,6.77-9.115,24.429-35.287,33.553-55.577-.7.886-1.422,1.743-2.151,2.571-9.519,19.483-25.13,42.562-31.4,51.006C117.034,292.279,76.711,326.1,49.045,326.1c-22.074,0-40.911-15-45.031-37.051-.3-2.354-3.532-2.94-2.943.294C1.1,289.489,1.128,289.634,1.155,289.785Z" fill="#333"/>
            <path d="M159.415,213.412c5.887-4.705,20.9-18.526,22.957-30.582a9.194,9.194,0,0,0-.117-1.425c-2.426,11.918-17.047,25.376-22.84,30.007a2.113,2.113,0,0,0-.27,2.367A1.652,1.652,0,0,1,159.415,213.412Z" fill="#333"/>
          </g>
          <path d="M195.323,145.19c5.3-6.175,13.245-8.234,17.66-4.7a7.674,7.674,0,0,1,2.75,5.417c.248-3.03-.639-5.73-2.75-7.417-4.415-3.529-12.362-1.47-17.66,4.7-3.528,3.9-5.176,8.374-4.808,12.038A17.721,17.721,0,0,1,195.323,145.19Z" fill="#333"/>
        </g>
      </g>
    </g>
  </g>
</svg>
