<?xml version="1.0" encoding="utf-8"?>
<!-- Generator: Adobe Illustrator 22.0.1, SVG Export Plug-In . SVG Version: 6.00 Build 0)  -->
<svg version="1.1" id="weiss" xmlns="http://www.w3.org/2000/svg" xmlns:xlink="http://www.w3.org/1999/xlink" x="0px" y="0px"
	 viewBox="0 0 128 128" style="enable-background:new 0 0 128 128;" xml:space="preserve">
<style type="text/css">
	.st0{fill:#FFFFFF;}
	.st1{fill:#F4CF34;}
	.st2{fill:#F91212;}
</style>
<g id="Ebene_2">
	<path id="schwarz" class="st0" d="M126.7,51.3c0,14.2-8,14.9-11.7,23.1c-1.3,2.6-1.1,7-1.3,10.5c-0.6,7.7-3.5,16.1-9.1,20.5
		c-0.8,0.7-1.8,1.3-2.8,1.6c-3.9,1.4-8.8,1.2-15.3-1.9c-1.9-0.9-2.6-1.4-2.6,0.7c0,6.1-5.2,15.6-13.2,15.6c-5.8,0-9.7-2.3-13.6-2.8
		c-1.4-0.4-2.8-0.3-4.1,0.2c-1.3,0.7-2.6,1.5-3.7,2.6c-2.9,3.2-6.7,5.1-10.8,5.6c-6.7,0-11.2-8.2-11.2-25.4c0-1.9,0-2.1-1.1-2.1
		c-12.1,0-12.3-11.4-13.8-24.2C11,61.7,0.7,59.2,0.7,50.6s7.1-11.6,15.1-11.6c3.1,0,6.2,0.4,9.3,1.2c1.7,0.2,1.9,0.2,1.9-1.4
		c0-7.7,13.4-6.1,17.7-10.9c0,0,7.5-8,8.4-9.1c2-2.6,4.9-4.3,8-4.7c2.6,0,2.8,0.9,3.7,2.3c0.2,0.5,0.6,0.9,1.3-0.7
		c1.3-3,6-14.7,11.7-14.7c5,0,4.1,4.9,9.1,6.5c8.4,2.8,28.7,2.3,28.7,15.8c-0.3,4.8-1.7,9.4-4.1,13.5c-1.1,2.3-0.2,1.9,0.6,1.9
		C115.9,38.9,126.7,38.5,126.7,51.3z"/>
</g>
<path id="gelb_1_" class="st1" d="M61.1,80c10.2,0.8,14.3-12.2,10.2-16.6c-6-4.3-18.1,0-17.2,10.5c0.1,0.3,0.1,0.7,0.2,1
	c1,2.5,3,4.3,5.5,4.8C60.2,79.9,60.7,79.9,61.1,80z"/>
<path id="rot_1_" class="st2" d="M6.3,52.9c13.8,0.5,38.6,3.7,45.3,13.5c0.9-1.2,1.1-1.6-0.4-3C39.5,52.9,26.4,46.6,16,46.6
	c-3.4-0.1-6.7,0.7-9.7,2.3c-0.9,0.5-2.4,1.6-0.9,3L6.3,52.9z M17.7,78.1c7.8-2.8,23.3-2.3,29.3,0c1.5,0.5,2.4,0.7,2.4-0.7
	c-0.2-1.2-0.2-2.3,0-3.5l-0.2-0.2c-6.7-8.6-25-16.1-40.6-17.5c4,5.7,6.5,12.4,7.1,19.6C15.8,77.8,16.4,78.5,17.7,78.1z M50.3,85
	c2.4-2.3-0.2-3.3-1.9-3.5c-8.8-1.2-22.9,0.9-29.3,2.6c-2.8,0.9-2.8,0.7-2.4,4c0.9,5.4,4.7,7.5,9.9,7.5C34.3,95.5,44.7,90.4,50.3,85z
	 M30.9,42.4c3.9,1.2,16.8,5.8,23.5,16.8c0.9,1.4,0.9,1.4,0.9,0c0-8.9-8.6-19.3-15.1-24.5c-0.7-0.6-1.6-0.8-2.4-0.5
	c-3,1-5.7,3-7.8,5.6C29.4,40.8,29.4,41.7,30.9,42.4L30.9,42.4z M50.1,91.1c1.3-2.6,0.9-3.5-1.3-1.2c-4.6,4.7-10.2,7.9-16.4,9.3
	c-1.2,0.4-2.1,1.6-2.2,3c-0.7,4.6-0.5,9.3,0.6,13.7c0.4,1.9,0.9,2.6,3,0.7C36.5,114.4,46,100.9,50.1,91.1L50.1,91.1z M56.3,84.6
	c-1.7-0.2-1.5,0.5-1.7,2.1c-0.9,12.8-10.6,29.1-16.8,34.9c-0.9,0.9-0.6,2.3,1.1,2.3c4.1,0,9.9-7.9,15.3-9.1
	C56.3,104.9,57,94.7,56.3,84.6L56.3,84.6z M43.6,34.5c7.3,4,12.5,15.4,14.9,23.3l0.2,0.2c0-6.1-3-22.1-6.5-32.6
	c-2.2,3.1-5.2,5.4-8.6,6.8C42.5,32.6,42.5,33.8,43.6,34.5z M55,21.9c4.7,9.3,9.7,25.2,9.7,34.9h0.4c1.9,0,2.6-11.2,2.6-18.4
	C67.8,21.5,61.7,14.7,55,21.9L55,21.9z M80.5,102.5c-0.2-7.7-2.8-15.2-7.3-21.2c-0.9-1.2-1.3-1.2-2.4-0.2c-2.8,1.8-6,3-9.3,3.3
	c0.6,10.5-0.6,21-3.5,31C74.9,120.7,80.5,112.5,80.5,102.5L80.5,102.5z M69.9,21.2c1.8,5.5,2.6,11.2,2.4,17c0,5.4-0.6,10.8-1.9,16.1
	c-0.4,1.4-0.6,2.1,0.2,2.8l1.1,0.7c-0.4-7,4.5-25.6,17.7-46.6c-3.1-1.9-6.6-3-10.1-3.3c-3.7,0-7.3,1.9-10.4,7.9
	C68,17.7,68.6,18.2,69.9,21.2L69.9,21.2z M91.9,12.6c-6.3,11.2-16.4,35.6-17,47c0.6-0.2,1.3-1.2,1.9-3.3
	c3.9-11.9,18.1-31.7,24.4-37.7c2.2-2.1,1.7-3-0.2-2.8C98.4,16.1,95.2,14.5,91.9,12.6z M110.3,82.2c-16.6-11.6-27.4-13-35-11.4
	c-0.2,0.9-0.2,2.1-0.4,3c8.2,2.6,20.9,16.1,27.8,27.7C107.7,97.8,109.8,90.4,110.3,82.2L110.3,82.2z M99.7,103
	c-6.2-9.3-13.9-17.2-22.7-23.5c4.8,5.8,7.6,13.2,8,21c0,1.4,0.2,1.6,1.3,1.9C90.6,104,95.3,104.2,99.7,103L99.7,103z M122.4,53.4
	c0-6.5-4.3-10.7-10.6-10.7c-10.8,0-27,10.5-33.9,21.7c8.2-1.4,23.5,2.8,33.4,10C114.2,67.6,122.4,61.3,122.4,53.4L122.4,53.4z
	 M90.9,42.9c-0.6,1.6-0.6,2.8,1.1,1.4c4.4-3.8,9.7-5.9,15.3-6.1c1.5,0,1.5-0.5,1.5-1.9c0.2-3,3-6.8,3-10.5c0-2.3-1-4.5-2.6-6.1
	c-0.9-0.9-2.6,0.5-3.5,1.2C102.5,23.6,92.6,38,90.9,42.9L90.9,42.9z"/>
</svg>
