<svg id="slacklogo" xmlns="http://www.w3.org/2000/svg" viewBox="0 0 32 32">
  <title>Zeichenfläche 1</title>
  <g id="inner">
    <path d="M20.739,1.984a2.855,2.855,0,1,0-5.432,1.758l7.374,22.674a2.847,2.847,0,0,0,3.464,1.758,2.8,2.8,0,0,0,1.942-3.517C28.087,24.605,20.739,1.984,20.739,1.984Z" fill="#ecb32d"/>
    <path d="M9.324,5.684A2.855,2.855,0,1,0,3.892,7.443l7.374,22.673a2.845,2.845,0,0,0,3.464,1.758,2.8,2.8,0,0,0,1.942-3.516C16.672,28.305,9.324,5.684,9.324,5.684Z" fill="#63c1a0"/>
    <path d="M30.029,20.747a2.855,2.855,0,1,0-1.758-5.432l-22.7,7.4a2.846,2.846,0,0,0-1.758,3.464A2.8,2.8,0,0,0,7.33,28.121C7.382,28.121,30.029,20.747,30.029,20.747Z" fill="#e01a59"/>
    <path d="M10.3,27.177c1.469-.473,3.385-1.1,5.432-1.759-.472-1.469-1.1-3.385-1.758-5.432L8.537,21.745Z" fill="#331433"/>
    <path d="M21.736,23.45c2.047-.656,3.963-1.286,5.433-1.758-.473-1.47-1.1-3.385-1.759-5.432l-5.432,1.758Z" fill="#d62027"/>
    <path d="M26.3,9.332A2.855,2.855,0,0,0,24.544,3.9L1.871,11.274A2.846,2.846,0,0,0,.113,14.738,2.8,2.8,0,0,0,3.629,16.68C3.682,16.68,26.3,9.332,26.3,9.332Z" fill="#89d3df"/>
    <path d="M6.6,15.735c1.469-.472,3.385-1.1,5.432-1.758-.656-2.047-1.286-3.963-1.758-5.432L4.837,10.3Z" fill="#258b74"/>
    <path d="M18.01,12.035c2.047-.656,3.963-1.286,5.432-1.758-.656-2.047-1.286-3.963-1.758-5.432L16.252,6.6Z" fill="#819c3c"/>
  </g>
</svg>
