<svg id="slacklogo" xmlns="http://www.w3.org/2000/svg" viewBox="0 0 436.968 125">
  <title>slack</title>
  <g id="logo">
    <path d="M78.69,11.162a10.832,10.832,0,1,0-20.611,6.671l27.979,86.028A10.8,10.8,0,0,0,99.2,110.532c5.775-1.693,9.26-7.766,7.368-13.342C106.57,96.991,78.69,11.162,78.69,11.162Z" fill="#ecb32d"/>
    <path d="M35.377,25.2a10.832,10.832,0,0,0-20.611,6.671L42.746,117.9a10.8,10.8,0,0,0,13.143,6.671c5.775-1.692,9.26-7.766,7.368-13.342C63.257,111.03,35.377,25.2,35.377,25.2Z" fill="#63c1a0"/>
    <path d="M113.938,82.354a10.832,10.832,0,1,0-6.671-20.611L21.139,89.822a10.8,10.8,0,0,0-6.671,13.143c1.692,5.775,7.766,9.26,13.342,7.368C28.009,110.333,113.938,82.354,113.938,82.354Z" fill="#e01a59"/>
    <path d="M39.061,106.749c5.576-1.793,12.845-4.182,20.611-6.672C57.88,94.5,55.49,87.233,53,79.466L32.39,86.138Z" fill="#331433"/>
    <path d="M82.474,92.61c7.766-2.49,15.035-4.879,20.611-6.672-1.792-5.575-4.182-12.844-6.671-20.61L75.8,72Z" fill="#d62027"/>
    <path d="M99.8,39.041A10.832,10.832,0,0,0,93.128,18.43L7.1,46.409A10.8,10.8,0,0,0,.428,59.552c1.693,5.776,7.767,9.26,13.343,7.369C13.97,66.921,99.8,39.041,99.8,39.041Z" fill="#89d3df"/>
    <path d="M25.022,63.336c5.576-1.792,12.845-4.182,20.611-6.671C43.144,48.9,40.754,41.63,38.962,36.054L18.351,42.725Z" fill="#258b74"/>
    <path d="M68.335,49.3c7.766-2.489,15.035-4.879,20.611-6.671-2.489-7.767-4.879-15.035-6.671-20.611L61.664,28.686Z" fill="#819c3c"/>
  </g>
  <path id="text" d="M201.161,33.764c3.784,1.693,4.082,2.887,1.095,8.563-3.086,5.775-3.783,6.173-7.567,4.68-4.68-1.992-10.754-3.485-14.637-3.485-6.372,0-10.554,2.29-10.554,5.775,0,11.45,36.442,5.277,36.442,29.572,0,12.247-10.554,20.412-26.286,20.412-8.264,0-18.52-2.788-25.589-6.373-3.485-1.792-3.784-2.788-.7-8.662,2.588-5.078,3.484-5.676,7.268-4.083,5.974,2.589,13.641,4.68,18.719,4.68,5.775,0,9.659-2.389,9.659-5.775,0-11.052-37.14-5.775-37.14-29.373,0-12.546,10.455-20.91,26.087-20.91A59.754,59.754,0,0,1,201.161,33.764ZM230.634,4.889V95.7c0,1.394-1.494,2.788-3.485,2.788H217.59a3.259,3.259,0,0,1-3.485-2.788V4.889C214.105.408,215.4.01,222.369.01,230.335-.09,230.634.508,230.634,4.889ZM298.54,55.868V95a3.346,3.346,0,0,1-3.485,3.485H285.6a3.329,3.329,0,0,1-3.485-3.783l.1-4.182A26.628,26.628,0,0,1,262.4,99.181c-14.238,0-23.8-8.264-23.8-20.511,0-13.044,10.754-21.9,26.984-21.9a43.041,43.041,0,0,1,16.329,2.987V55.271c0-7.169-5.675-11.451-15.334-11.451-4.48,0-10.056,1.793-14.437,4.382-3.386,1.891-4.182,1.792-7.866-3.685-3.585-5.476-3.485-6.472,0-8.762a46.275,46.275,0,0,1,23.9-7.069C286.791,28.686,298.54,38.742,298.54,55.868Zm-44.01,22.7c0,4.68,3.983,7.767,9.858,7.767a20.684,20.684,0,0,0,17.524-9.36V70.9a35.9,35.9,0,0,0-12.546-2.29C260.4,68.613,254.53,72.8,254.53,78.57ZM363.261,33.863c3.485,1.992,3.584,3.087-.2,8.962C359.477,48.4,358.879,48.7,355,46.808a27.637,27.637,0,0,0-11.351-2.788c-11.948,0-19.914,7.866-19.914,19.814,0,12.347,7.966,20.71,19.914,20.71A28.981,28.981,0,0,0,356.39,81.06c3.485-1.992,4.182-1.892,7.866,3.484,3.286,4.979,3.286,6.174.3,8.265a40.386,40.386,0,0,1-21.208,6.472c-22.1,0-36.941-14.139-36.941-35.447,0-21.109,14.836-35.148,37.14-35.148A43.2,43.2,0,0,1,363.261,33.863Zm72.287,56.058c2.788,3.485,1.693,4.78-5.277,7.269-7.069,2.589-8.065,2.389-10.554-.8L399.9,70.007l-8.861,8.563V95.7c0,1.394-1.494,2.788-3.485,2.788H378a3.259,3.259,0,0,1-3.485-2.788V4.889c0-4.481,1.294-4.879,8.264-4.879,8.065,0,8.265.6,8.265,4.879V56.466l27.083-25.988c2.987-2.788,4.679-2.589,9.957.9,5.874,3.784,6.272,4.879,3.484,7.568L411.452,58.656Z" fill="#fff"/>
</svg>
