<svg id="cloudSun" xmlns="http://www.w3.org/2000/svg" viewBox="0 0 32 32">
  <title>wetter</title>
  <path id="sun" d="M30.626,18.436l-2.5-.175a1.255,1.255,0,1,1,.175-2.5l2.5.175a1.255,1.255,0,1,1-.175,2.5ZM28.184,8.108a1.255,1.255,0,1,0-1.647-1.894L24.642,7.861a1.255,1.255,0,1,0,1.647,1.9ZM19.045,5.321l.048-2.51a1.256,1.256,0,1,0-2.511-.048l-.048,2.51a1.256,1.256,0,0,0,2.511.048Zm-8.7,3.32a1.255,1.255,0,0,0,.124-1.771l-1.646-1.9A1.255,1.255,0,0,0,6.93,6.622L8.577,8.517A1.254,1.254,0,0,0,10.347,8.641Zm6.744,8.409a8.279,8.279,0,0,1,1.39-.14,8.184,8.184,0,0,1,6.251,2.9,8.2,8.2,0,0,0-14.184-7.943A10.968,10.968,0,0,1,17.091,17.05Z" fill="#cca217"/>
  <path id="cloud" d="M24.648,18.644a6.971,6.971,0,0,0-6.685-2.412A9.573,9.573,0,1,0,9.6,30.469h9.575a7.176,7.176,0,0,0,5.469-11.825Zm-5.524,9.43H9.551a7.18,7.18,0,0,1,0-14.359,7.094,7.094,0,0,1,1.56.192,7.172,7.172,0,0,1,5.42,5.367,4.783,4.783,0,1,1,2.593,8.8Z" fill="#e11a27"/>
</svg>
