<svg id="cloudSun" xmlns="http://www.w3.org/2000/svg" viewBox="0 0 32 32">
  <title>wetter</title>
  <path id="sun" d="M16.792,18.641a9.05,9.05,0,0,1,8.673,3.13,9.305,9.305,0,0,0-16.1-9.017A12.445,12.445,0,0,1,16.792,18.641Zm13.8.87-2.5-.176a1.255,1.255,0,1,1,.176-2.5l2.5.175a1.256,1.256,0,1,1-.175,2.5ZM19.016,6.114l.058-3.072a1.418,1.418,0,0,0-1.226-1.56A1.418,1.418,0,0,0,16.563,3l-.058,3.072a1.418,1.418,0,0,0,1.226,1.56A1.42,1.42,0,0,0,19.016,6.114ZM10.3,7.771,8.265,5.47a1.418,1.418,0,0,0-1.959-.32,1.418,1.418,0,0,0,.078,1.983l2.035,2.3a1.417,1.417,0,0,0,1.958.319A1.418,1.418,0,0,0,10.3,7.771Zm16.17,2.958,2.289-2.05a1.42,1.42,0,0,0,.307-1.961,1.419,1.419,0,0,0-1.983.09l-2.289,2.05a1.42,1.42,0,0,0-.307,1.961A1.42,1.42,0,0,0,26.47,10.729Z" fill="#cca217"/>
  <path d="M24.683,18.694a7.161,7.161,0,0,0-5.469-2.535A7.3,7.3,0,0,0,18,16.281,9.572,9.572,0,1,0,9.639,30.518h9.575a7.175,7.175,0,0,0,5.469-11.824Zm-5.883,9.1h-9a6.74,6.74,0,1,1,6.561-8.272A4.5,4.5,0,1,1,18.8,27.793Z" fill="#e11a27"/>
</svg>
