<svg version="1.1" id="Ebene_1" xmlns="http://www.w3.org/2000/svg" xmlns:xlink="http://www.w3.org/1999/xlink" x="0px" y="0px"
	 viewBox="0 0 822 406" style="enable-background:new 0 0 822 406;" xml:space="preserve"  width="100%" height="100%">
	<style type="text/css">
		.st0{fill:#E62C34;}
		.st1{font-family:'Impact';}
		.st2{font-size:154.6392px;}
		.st3{fill:#9C9EDE;}
		.st4{font-size:46.3917px;}
		.st5{fill:#CEDB9C;}
		.st6{fill:#E7BA52;}
		.st7{font-size:27.9014px;}
		.st8{fill:#D6616B;}
		.st9{font-size:61.8557px;}
		.st10{fill:#7B4173;}
		.st11{fill:#A55194;}
		.st12{font-size:56.0325px;}
		.st13{fill:#DE9ED6;}
		.st14{font-size:30.9278px;}
		.st15{fill:#F0867E;}
		.st16{font-size:41.7592px;}
		.st17{fill:#4D443D;}
		.st18{font-size:68.2954px;}
		.st19{fill:#843C39;}
	</style>
	<g transform="translate(480,300)scale(1.5463917255401611,1.5463917255401611)">
		<text transform="matrix(0.6467 0 0 0.6467 -311.4091 -23.5932)" class="st0 st1 st2">Sex</text>
		<text transform="matrix(0.56 0.3233 -0.3233 0.56 -206.2209 -142.7264)" class="st3 st1 st4">Massage</text>
		<text transform="matrix(0.56 -0.3233 0.3233 0.56 -150.4824 45.7903)" class="st5 st1 st4">Couples</text>
		<text transform="matrix(0.3495 -0.5441 0.5441 0.3495 -245.2368 -117.0783)" class="st6 st1 st7">Fingering</text>
		<text transform="matrix(0.6466 -1.011019e-02 1.011019e-02 0.6466 -10.5531 -139.7095)" class="st8 st1 st9">Striptease</text>
		<text transform="matrix(0.5276 0.3739 -0.3739 0.5276 -247.0668 6.3571)" class="st10 st1 st4">Anal</text>
		<text transform="matrix(0.559 0.325 -0.325 0.559 3.6989 -9.5087)" class="st11 st1 st12">Nuru</text>
		<text transform="matrix(0.3233 0.56 -0.56 0.3233 -121.217 -178.083)" class="st13 st1 st14">Blowjob</text>
		<text transform="matrix(2.615077e-03 -0.6467 0.6467 2.615077e-03 -38.446 -31.5637)" class="st15 st1 st16">Parties</text>
		<text transform="matrix(0.6466 -1.093615e-02 1.093615e-02 0.6466 78.0727 -19.3715)" class="st17 st1 st18">Strapon</text>
		<text transform="matrix(0.56 -0.3233 0.3233 0.56 48.1722 -51.8671)" class="st6 st1 st4">Footfetish</text>
		<text transform="matrix(0.3233 -0.56 0.56 0.3233 -6.6555 -39.6974)" class="st19 st1 st14">DeepThroat</text>
		<text transform="matrix(0.6465 -1.404647e-02 1.404647e-02 0.6465 -57.135 42.82)" class="st3 st1 st4">Toys</text>
	</g>
</svg>
