<svg id="vietstar" xmlns="http://www.w3.org/2000/svg" width="30" height="36" viewBox="0 0 30 36"><title>Zeichenfläche 1</title><g id="id_map2" data-name="id map2"><path id="background" d="M28.55174,14.73333c0,10.48223-13.44889,19.38222-13.44889,19.38222S1.654,25.21556,1.654,14.73333a13.44889,13.44889,0,1,1,26.89778,0Z" style="fill:#e11a27"/><path id="outer" d="M15,2.0245A12.71807,12.71807,0,0,1,27.66767,14.69217c0,8.30666-8.92967,15.99033-12.66767,18.69-3.53033-2.69967-12.66767-10.591-12.66767-18.69A12.586,12.586,0,0,1,15,2.0245M15,.2A14.60254,14.60254,0,0,0,.36444,14.83556h0C.36444,26.10889,15,35.8,15,35.8s14.63556-9.69111,14.63556-20.96445A14.86046,14.86046,0,0,0,15,.2Z" style="fill:#cca217"/></g><polygon id="stern2-P" points="8.064 13.184 12.351 16.196 10.713 21.134 15 18.032 19.286 21.175 17.649 16.19 21.936 13.184 16.637 13.184 15 8.145 13.363 13.184 8.064 13.184" style="fill:#fff"/></svg>