<svg xmlns="http://www.w3.org/2000/svg" width="1920" height="1080"><path d="M-175,-225L231,-208L387,-213Z" fill="#e3eef5" stroke="#e3eef5" stroke-width="1.51"/><path d="M-175,-225L387,-213L834,-240Z" fill="#d8e5f0" stroke="#d8e5f0" stroke-width="1.51"/><path d="M687,1308L412,1341L1069,1314Z" fill="#7e6193" stroke="#7e6193" stroke-width="1.51"/><path d="M-175,-225L834,-240L1380,-264Z" fill="#c8d9ea" stroke="#c8d9ea" stroke-width="1.51"/><path d="M1367,1311L1069,1314L1829,1325Z" fill="#72317d" stroke="#72317d" stroke-width="1.51"/><path d="M1069,1314L412,1341L1829,1325Z" fill="#744886" stroke="#744886" stroke-width="1.51"/><path d="M1690,-265L1964,-172L2032,-162Z" fill="#b788b6" stroke="#b788b6" stroke-width="1.51"/><path d="M2056,838L1958,1007L2096,1045Z" fill="#75267c" stroke="#75267c" stroke-width="1.51"/><path d="M2059,1114L2080,1255L2096,1045Z" fill="#6e0d6b" stroke="#6e0d6b" stroke-width="1.51"/><path d="M2046,546L1972,642L2102,744Z" fill="#7a4a8b" stroke="#7a4a8b" stroke-width="1.51"/><path d="M2056,838L2096,1045L2102,744Z" fill="#722e7c" stroke="#722e7c" stroke-width="1.51"/><path d="M1945,270L1922,397L2110,416Z" fill="#88679d" stroke="#88679d" stroke-width="1.51"/><path d="M2046,546L2102,744L2110,416Z" fill="#76508b" stroke="#76508b" stroke-width="1.51"/><path d="M2032,-162L1976,-65L2118,-18Z" fill="#a37da6" stroke="#a37da6" stroke-width="1.51"/><path d="M2102,744L2096,1045L2128,239Z" fill="#734484" stroke="#734484" stroke-width="1.51"/><path d="M1945,270L2110,416L2128,239Z" fill="#856899" stroke="#856899" stroke-width="1.51"/><path d="M2036,86L1945,270L2128,239Z" fill="#8f6e9e" stroke="#8f6e9e" stroke-width="1.51"/><path d="M2110,416L2102,744L2128,239Z" fill="#78588d" stroke="#78588d" stroke-width="1.51"/><path d="M2118,-18L2036,86L2128,239Z" fill="#91719c" stroke="#91719c" stroke-width="1.51"/><path d="M1976,-65L2036,86L2118,-18Z" fill="#9d78a4" stroke="#9d78a4" stroke-width="1.51"/><path d="M2059,1114L1954,1187L2080,1255Z" fill="#6e086a" stroke="#6e086a" stroke-width="1.51"/><path d="M1956,534L2046,546L2110,416Z" fill="#7d5993" stroke="#7d5993" stroke-width="1.51"/><path d="M1922,397L1956,534L2110,416Z" fill="#845f98" stroke="#845f98" stroke-width="1.51"/><path d="M1972,642L2056,838L2102,744Z" fill="#783f86" stroke="#783f86" stroke-width="1.51"/><path d="M1958,1007L2059,1114L2096,1045Z" fill="#731a75" stroke="#731a75" stroke-width="1.51"/><path d="M1894,874L1958,1007L2056,838Z" fill="#7c2f85" stroke="#7c2f85" stroke-width="1.51"/><path d="M1954,1187L1976,1325L2080,1255Z" fill="#680664" stroke="#680664" stroke-width="1.51"/><path d="M1976,-65L1915,68L2036,86Z" fill="#a17aa9" stroke="#a17aa9" stroke-width="1.51"/><path d="M1915,68L1945,270L2036,86Z" fill="#9a74a6" stroke="#9a74a6" stroke-width="1.51"/><path d="M1972,642L1894,874L2056,838Z" fill="#7e3d8a" stroke="#7e3d8a" stroke-width="1.51"/><path d="M1958,1007L1954,1187L2059,1114Z" fill="#761575" stroke="#761575" stroke-width="1.51"/><path d="M1956,534L1972,642L2046,546Z" fill="#7f5393" stroke="#7f5393" stroke-width="1.51"/><path d="M1964,-172L1976,-65L2032,-162Z" fill="#ab81ac" stroke="#ab81ac" stroke-width="1.51"/><path d="M1690,-265L1740,-188L1964,-172Z" fill="#bc8dbe" stroke="#bc8dbe" stroke-width="1.51"/><path d="M1487,1262L1367,1311L1829,1325Z" fill="#73267b" stroke="#73267b" stroke-width="1.51"/><path d="M1915,68L1794,74L1945,270Z" fill="#a278ad" stroke="#a278ad" stroke-width="1.51"/><path d="M1794,74L1730,195L1945,270Z" fill="#a279b1" stroke="#a279b1" stroke-width="1.51"/><path d="M1769,1147L1954,1187L1958,1007Z" fill="#7f167c" stroke="#7f167c" stroke-width="1.51"/><path d="M1806,990L1769,1147L1958,1007Z" fill="#832286" stroke="#832286" stroke-width="1.51"/><path d="M1753,793L1894,874L1972,642Z" fill="#874294" stroke="#874294" stroke-width="1.51"/><path d="M1756,679L1753,793L1972,642Z" fill="#894c9a" stroke="#894c9a" stroke-width="1.51"/><path d="M1956,534L1755,542L1972,642Z" fill="#88579c" stroke="#88579c" stroke-width="1.51"/><path d="M1755,542L1756,679L1972,642Z" fill="#8b559e" stroke="#8b559e" stroke-width="1.51"/><path d="M1964,-172L1792,-79L1976,-65Z" fill="#b184b2" stroke="#b184b2" stroke-width="1.51"/><path d="M1792,-79L1915,68L1976,-65Z" fill="#ad80b2" stroke="#ad80b2" stroke-width="1.51"/><path d="M1954,1187L1829,1325L1976,1325Z" fill="#6c0768" stroke="#6c0768" stroke-width="1.51"/><path d="M1894,874L1806,990L1958,1007Z" fill="#822b8a" stroke="#822b8a" stroke-width="1.51"/><path d="M1922,397L1755,542L1956,534Z" fill="#8c60a1" stroke="#8c60a1" stroke-width="1.51"/><path d="M1740,-188L1792,-79L1964,-172Z" fill="#b989ba" stroke="#b989ba" stroke-width="1.51"/><path d="M1772,361L1922,397L1945,270Z" fill="#936ea8" stroke="#936ea8" stroke-width="1.51"/><path d="M1769,1147L1829,1325L1954,1187Z" fill="#790e75" stroke="#790e75" stroke-width="1.51"/><path d="M1792,-79L1794,74L1915,68Z" fill="#ad81b5" stroke="#ad81b5" stroke-width="1.51"/><path d="M1730,195L1772,361L1945,270Z" fill="#9a75ae" stroke="#9a75ae" stroke-width="1.51"/><path d="M1606,1240L1487,1262L1829,1325Z" fill="#752179" stroke="#752179" stroke-width="1.51"/><path d="M1772,361L1755,542L1922,397Z" fill="#9169a8" stroke="#9169a8" stroke-width="1.51"/><path d="M1753,793L1806,990L1894,874Z" fill="#873892" stroke="#873892" stroke-width="1.51"/><path d="M1792,-79L1679,-87L1794,74Z" fill="#b288bb" stroke="#b288bb" stroke-width="1.51"/><path d="M1753,793L1652,966L1806,990Z" fill="#873a94" stroke="#873a94" stroke-width="1.51"/><path d="M1769,1147L1676,1164L1829,1325Z" fill="#7c197b" stroke="#7c197b" stroke-width="1.51"/><path d="M1676,1164L1606,1240L1829,1325Z" fill="#781d7a" stroke="#781d7a" stroke-width="1.51"/><path d="M1652,966L1676,1164L1769,1147Z" fill="#85298a" stroke="#85298a" stroke-width="1.51"/><path d="M1637,407L1755,542L1772,361Z" fill="#916ead" stroke="#916ead" stroke-width="1.51"/><path d="M1685,139L1730,195L1794,74Z" fill="#a580b7" stroke="#a580b7" stroke-width="1.51"/><path d="M1652,966L1769,1147L1806,990Z" fill="#852c8c" stroke="#852c8c" stroke-width="1.51"/><path d="M1637,407L1684,555L1755,542Z" fill="#8e69ac" stroke="#8e69ac" stroke-width="1.51"/><path d="M1755,542L1684,555L1756,679Z" fill="#8b5ea5" stroke="#8b5ea5" stroke-width="1.51"/><path d="M1730,195L1632,211L1772,361Z" fill="#9d7cb5" stroke="#9d7cb5" stroke-width="1.51"/><path d="M1740,-188L1679,-87L1792,-79Z" fill="#b78dbf" stroke="#b78dbf" stroke-width="1.51"/><path d="M1679,-87L1685,139L1794,74Z" fill="#ad86bb" stroke="#ad86bb" stroke-width="1.51"/><path d="M-175,-225L164,-204L231,-208Z" fill="#e7f0f6" stroke="#e7f0f6" stroke-width="1.51"/><path d="M1579,798L1652,966L1753,793Z" fill="#88459c" stroke="#88459c" stroke-width="1.51"/><path d="M1652,666L1753,793L1756,679Z" fill="#8a519f" stroke="#8a519f" stroke-width="1.51"/><path d="M1684,555L1652,666L1756,679Z" fill="#8b5ba5" stroke="#8b5ba5" stroke-width="1.51"/><path d="M1632,211L1637,407L1772,361Z" fill="#977ab5" stroke="#977ab5" stroke-width="1.51"/><path d="M1652,666L1579,798L1753,793Z" fill="#8a50a1" stroke="#8a50a1" stroke-width="1.51"/><path d="M1690,-265L1679,-87L1740,-188Z" fill="#bb91c2" stroke="#bb91c2" stroke-width="1.51"/><path d="M834,-240L1152,-195L1380,-264Z" fill="#bfbadb" stroke="#bfbadb" stroke-width="1.51"/><path d="M1679,-87L1466,114L1685,139Z" fill="#ac8cc1" stroke="#ac8cc1" stroke-width="1.51"/><path d="M1685,139L1632,211L1730,195Z" fill="#a281b9" stroke="#a281b9" stroke-width="1.51"/><path d="M1515,1013L1478,1154L1676,1164Z" fill="#863290" stroke="#863290" stroke-width="1.51"/><path d="M1652,966L1515,1013L1676,1164Z" fill="#863492" stroke="#863492" stroke-width="1.51"/><path d="M1483,-108L1466,114L1679,-87Z" fill="#b295c7" stroke="#b295c7" stroke-width="1.51"/><path d="M1637,407L1435,538L1684,555Z" fill="#8f6fb2" stroke="#8f6fb2" stroke-width="1.51"/><path d="M1490,-172L1679,-87L1690,-265Z" fill="#bb96c7" stroke="#bb96c7" stroke-width="1.51"/><path d="M1380,-264L1490,-172L1690,-265Z" fill="#bf9ecd" stroke="#bf9ecd" stroke-width="1.51"/><path d="M1490,-172L1483,-108L1679,-87Z" fill="#b998ca" stroke="#b998ca" stroke-width="1.51"/><path d="M1435,538L1652,666L1684,555Z" fill="#8c66ad" stroke="#8c66ad" stroke-width="1.51"/><path d="M1466,114L1632,211L1685,139Z" fill="#a487be" stroke="#a487be" stroke-width="1.51"/><path d="M1443,253L1431,334L1632,211Z" fill="#9c87bf" stroke="#9c87bf" stroke-width="1.51"/><path d="M1632,211L1431,334L1637,407Z" fill="#9881bb" stroke="#9881bb" stroke-width="1.51"/><path d="M1478,1154L1606,1240L1676,1164Z" fill="#812987" stroke="#812987" stroke-width="1.51"/><path d="M1455,706L1579,798L1652,666Z" fill="#8b59a8" stroke="#8b59a8" stroke-width="1.51"/><path d="M1435,538L1455,706L1652,666Z" fill="#8c66ae" stroke="#8c66ae" stroke-width="1.51"/><path d="M1579,798L1515,1013L1652,966Z" fill="#89439d" stroke="#89439d" stroke-width="1.51"/><path d="M1431,334L1435,538L1637,407Z" fill="#927cb9" stroke="#927cb9" stroke-width="1.51"/><path d="M1466,114L1443,253L1632,211Z" fill="#a28ac1" stroke="#a28ac1" stroke-width="1.51"/><path d="M1437,798L1515,1013L1579,798Z" fill="#8a4ea2" stroke="#8a4ea2" stroke-width="1.51"/><path d="M1478,1154L1487,1262L1606,1240Z" fill="#7d2d86" stroke="#7d2d86" stroke-width="1.51"/><path d="M1455,706L1437,798L1579,798Z" fill="#8b59a8" stroke="#8b59a8" stroke-width="1.51"/><path d="M1431,334L1380,340L1435,538Z" fill="#9383bd" stroke="#9383bd" stroke-width="1.51"/><path d="M1435,538L1388,672L1455,706Z" fill="#8c6cb1" stroke="#8c6cb1" stroke-width="1.51"/><path d="M1325,-104L1348,134L1466,114Z" fill="#ad9bca" stroke="#ad9bca" stroke-width="1.51"/><path d="M1325,-104L1466,114L1483,-108Z" fill="#b39ccb" stroke="#b39ccb" stroke-width="1.51"/><path d="M1437,798L1288,865L1515,1013Z" fill="#8a52a5" stroke="#8a52a5" stroke-width="1.51"/><path d="M1288,865L1315,1034L1515,1013Z" fill="#8a4ea1" stroke="#8a4ea1" stroke-width="1.51"/><path d="M1315,1034L1478,1154L1515,1013Z" fill="#884098" stroke="#884098" stroke-width="1.51"/><path d="M1388,228L1443,253L1466,114Z" fill="#a18fc3" stroke="#a18fc3" stroke-width="1.51"/><path d="M1315,1034L1373,1172L1478,1154Z" fill="#883f95" stroke="#883f95" stroke-width="1.51"/><path d="M1478,1154L1373,1172L1487,1262Z" fill="#81358c" stroke="#81358c" stroke-width="1.51"/><path d="M1325,-104L1483,-108L1490,-172Z" fill="#b9a1cd" stroke="#b9a1cd" stroke-width="1.51"/><path d="M1380,-264L1325,-104L1490,-172Z" fill="#bca4d0" stroke="#bca4d0" stroke-width="1.51"/><path d="M1373,1172L1367,1311L1487,1262Z" fill="#7b3586" stroke="#7b3586" stroke-width="1.51"/><path d="M1345,593L1388,672L1435,538Z" fill="#8d72b4" stroke="#8d72b4" stroke-width="1.51"/><path d="M1348,134L1388,228L1466,114Z" fill="#a493c6" stroke="#a493c6" stroke-width="1.51"/><path d="M1380,340L1219,539L1435,538Z" fill="#9081bc" stroke="#9081bc" stroke-width="1.51"/><path d="M1219,539L1345,593L1435,538Z" fill="#8c7ab8" stroke="#8c7ab8" stroke-width="1.51"/><path d="M1380,340L1431,334L1443,253Z" fill="#988bc0" stroke="#988bc0" stroke-width="1.51"/><path d="M1388,672L1437,798L1455,706Z" fill="#8b62ac" stroke="#8b62ac" stroke-width="1.51"/><path d="M1388,228L1380,340L1443,253Z" fill="#9c8ec2" stroke="#9c8ec2" stroke-width="1.51"/><path d="M1229,1255L1069,1314L1367,1311Z" fill="#774187" stroke="#774187" stroke-width="1.51"/><path d="M1388,672L1288,865L1437,798Z" fill="#8c61ac" stroke="#8c61ac" stroke-width="1.51"/><path d="M834,-240L1058,-179L1152,-195Z" fill="#bdc1dd" stroke="#bdc1dd" stroke-width="1.51"/><path d="M1141,636L1133,810L1288,865Z" fill="#8d6eb2" stroke="#8d6eb2" stroke-width="1.51"/><path d="M1325,-104L1208,-65L1348,134Z" fill="#b1a4cf" stroke="#b1a4cf" stroke-width="1.51"/><path d="M1315,1034L1219,1127L1373,1172Z" fill="#894699" stroke="#894699" stroke-width="1.51"/><path d="M1229,1255L1367,1311L1373,1172Z" fill="#7c3c89" stroke="#7c3c89" stroke-width="1.51"/><path d="M1175,410L1219,539L1380,340Z" fill="#928bc1" stroke="#928bc1" stroke-width="1.51"/><path d="M1152,-195L1325,-104L1380,-264Z" fill="#bcacd4" stroke="#bcacd4" stroke-width="1.51"/><path d="M1345,593L1141,636L1388,672Z" fill="#8d75b5" stroke="#8d75b5" stroke-width="1.51"/><path d="M1141,636L1288,865L1388,672Z" fill="#8c6db1" stroke="#8c6db1" stroke-width="1.51"/><path d="M1192,208L1380,340L1388,228Z" fill="#9d93c5" stroke="#9d93c5" stroke-width="1.51"/><path d="M1348,134L1192,208L1388,228Z" fill="#a298c8" stroke="#a298c8" stroke-width="1.51"/><path d="M859,1274L687,1308L1069,1314Z" fill="#7b5991" stroke="#7b5991" stroke-width="1.51"/><path d="M1208,-65L1150,94L1348,134Z" fill="#aca5cf" stroke="#aca5cf" stroke-width="1.51"/><path d="M1192,208L1175,410L1380,340Z" fill="#9795c6" stroke="#9795c6" stroke-width="1.51"/><path d="M1219,1127L1229,1255L1373,1172Z" fill="#854393" stroke="#854393" stroke-width="1.51"/><path d="M1219,539L1141,636L1345,593Z" fill="#8d7eba" stroke="#8d7eba" stroke-width="1.51"/><path d="M1150,94L1192,208L1348,134Z" fill="#a59fcc" stroke="#a59fcc" stroke-width="1.51"/><path d="M1288,865L1142,1035L1315,1034Z" fill="#8a56a5" stroke="#8a56a5" stroke-width="1.51"/><path d="M1152,-195L1208,-65L1325,-104Z" fill="#b9aed4" stroke="#b9aed4" stroke-width="1.51"/><path d="M1142,1035L1219,1127L1315,1034Z" fill="#8a509f" stroke="#8a509f" stroke-width="1.51"/><path d="M1133,810L1142,1035L1288,865Z" fill="#8c62ac" stroke="#8c62ac" stroke-width="1.51"/><path d="M387,-213L561,-187L834,-240Z" fill="#cadbeb" stroke="#cadbeb" stroke-width="1.51"/><path d="M1072,198L1013,350L1175,410Z" fill="#97a1cc" stroke="#97a1cc" stroke-width="1.51"/><path d="M1072,198L1175,410L1192,208Z" fill="#9b9fcb" stroke="#9b9fcb" stroke-width="1.51"/><path d="M1083,-10L1150,94L1208,-65Z" fill="#b0add3" stroke="#b0add3" stroke-width="1.51"/><path d="M1059,1086L1069,1314L1219,1127Z" fill="#885099" stroke="#885099" stroke-width="1.51"/><path d="M1219,1127L1069,1314L1229,1255Z" fill="#804890" stroke="#804890" stroke-width="1.51"/><path d="M1133,810L1009,859L1142,1035Z" fill="#8c68af" stroke="#8c68af" stroke-width="1.51"/><path d="M1175,410L1001,497L1219,539Z" fill="#8f90c3" stroke="#8f90c3" stroke-width="1.51"/><path d="M1001,497L1141,636L1219,539Z" fill="#8d89bf" stroke="#8d89bf" stroke-width="1.51"/><path d="M1142,1035L1059,1086L1219,1127Z" fill="#8b55a0" stroke="#8b55a0" stroke-width="1.51"/><path d="M1152,-195L1058,-179L1208,-65Z" fill="#bbb5d8" stroke="#bbb5d8" stroke-width="1.51"/><path d="M1058,-179L1083,-10L1208,-65Z" fill="#b7b5d7" stroke="#b7b5d7" stroke-width="1.51"/><path d="M1009,859L986,987L1142,1035Z" fill="#8c67ae" stroke="#8c67ae" stroke-width="1.51"/><path d="M1150,94L1072,198L1192,208Z" fill="#a4a5cf" stroke="#a4a5cf" stroke-width="1.51"/><path d="M992,709L1133,810L1141,636Z" fill="#8d7bb8" stroke="#8d7bb8" stroke-width="1.51"/><path d="M1013,350L1001,497L1175,410Z" fill="#9299c8" stroke="#9299c8" stroke-width="1.51"/><path d="M1003,145L1072,198L1150,94Z" fill="#a5abd1" stroke="#a5abd1" stroke-width="1.51"/><path d="M1083,-10L1003,145L1150,94Z" fill="#aaaed3" stroke="#aaaed3" stroke-width="1.51"/><path d="M1001,497L992,709L1141,636Z" fill="#8d89bf" stroke="#8d89bf" stroke-width="1.51"/><path d="M986,987L1059,1086L1142,1035Z" fill="#8c5fa7" stroke="#8c5fa7" stroke-width="1.51"/><path d="M992,709L1009,859L1133,810Z" fill="#8d76b6" stroke="#8d76b6" stroke-width="1.51"/><path d="M1059,1086L882,1161L1069,1314Z" fill="#87589b" stroke="#87589b" stroke-width="1.51"/><path d="M882,1161L859,1274L1069,1314Z" fill="#805996" stroke="#805996" stroke-width="1.51"/><path d="M904,271L1013,350L1072,198Z" fill="#9aaad0" stroke="#9aaad0" stroke-width="1.51"/><path d="M939,104L1003,145L1083,-10Z" fill="#aab3d6" stroke="#aab3d6" stroke-width="1.51"/><path d="M1058,-179L847,-79L1083,-10Z" fill="#b7bedb" stroke="#b7bedb" stroke-width="1.51"/><path d="M847,-79L939,104L1083,-10Z" fill="#b0bbda" stroke="#b0bbda" stroke-width="1.51"/><path d="M858,594L992,709L1001,497Z" fill="#8d91c3" stroke="#8d91c3" stroke-width="1.51"/><path d="M1003,145L904,271L1072,198Z" fill="#a0add3" stroke="#a0add3" stroke-width="1.51"/><path d="M925,397L1001,497L1013,350Z" fill="#92a0cb" stroke="#92a0cb" stroke-width="1.51"/><path d="M986,987L898,1031L1059,1086Z" fill="#8c65aa" stroke="#8c65aa" stroke-width="1.51"/><path d="M898,1031L882,1161L1059,1086Z" fill="#8d63a6" stroke="#8d63a6" stroke-width="1.51"/><path d="M834,-240L847,-79L1058,-179Z" fill="#bdc7e0" stroke="#bdc7e0" stroke-width="1.51"/><path d="M858,594L869,683L992,709Z" fill="#8e8dc2" stroke="#8e8dc2" stroke-width="1.51"/><path d="M869,683L882,889L992,709Z" fill="#8e82bc" stroke="#8e82bc" stroke-width="1.51"/><path d="M939,104L904,271L1003,145Z" fill="#a3b2d5" stroke="#a3b2d5" stroke-width="1.51"/><path d="M992,709L882,889L1009,859Z" fill="#8d7ab8" stroke="#8d7ab8" stroke-width="1.51"/><path d="M882,889L986,987L1009,859Z" fill="#8d71b3" stroke="#8d71b3" stroke-width="1.51"/><path d="M904,271L925,397L1013,350Z" fill="#96a9d0" stroke="#96a9d0" stroke-width="1.51"/><path d="M925,397L858,594L1001,497Z" fill="#8f9cc9" stroke="#8f9cc9" stroke-width="1.51"/><path d="M882,889L898,1031L986,987Z" fill="#8e6eb1" stroke="#8e6eb1" stroke-width="1.51"/><path d="M752,558L858,594L925,397Z" fill="#919fcb" stroke="#919fcb" stroke-width="1.51"/><path d="M762,350L752,558L925,397Z" fill="#95a9d0" stroke="#95a9d0" stroke-width="1.51"/><path d="M904,271L762,350L925,397Z" fill="#98aed2" stroke="#98aed2" stroke-width="1.51"/><path d="M847,-79L681,116L939,104Z" fill="#b0c2dd" stroke="#b0c2dd" stroke-width="1.51"/><path d="M681,116L775,226L939,104Z" fill="#a9bddb" stroke="#a9bddb" stroke-width="1.51"/><path d="M775,226L904,271L939,104Z" fill="#a2b6d7" stroke="#a2b6d7" stroke-width="1.51"/><path d="M772,-89L681,116L847,-79Z" fill="#b7c9e1" stroke="#b7c9e1" stroke-width="1.51"/><path d="M869,683L689,736L882,889Z" fill="#9288bf" stroke="#9288bf" stroke-width="1.51"/><path d="M776,1183L859,1274L882,1161Z" fill="#89619e" stroke="#89619e" stroke-width="1.51"/><path d="M689,736L695,873L882,889Z" fill="#9485be" stroke="#9485be" stroke-width="1.51"/><path d="M776,1183L882,1161L898,1031Z" fill="#9066a6" stroke="#9066a6" stroke-width="1.51"/><path d="M699,994L776,1183L898,1031Z" fill="#926ead" stroke="#926ead" stroke-width="1.51"/><path d="M882,889L699,994L898,1031Z" fill="#9174b4" stroke="#9174b4" stroke-width="1.51"/><path d="M775,226L762,350L904,271Z" fill="#9eb5d7" stroke="#9eb5d7" stroke-width="1.51"/><path d="M561,-187L720,-174L834,-240Z" fill="#c5d5e8" stroke="#c5d5e8" stroke-width="1.51"/><path d="M834,-240L772,-89L847,-79Z" fill="#becbe2" stroke="#becbe2" stroke-width="1.51"/><path d="M720,-174L772,-89L834,-240Z" fill="#c1cfe5" stroke="#c1cfe5" stroke-width="1.51"/><path d="M695,873L699,994L882,889Z" fill="#937db9" stroke="#937db9" stroke-width="1.51"/><path d="M858,594L752,558L869,683Z" fill="#9197c7" stroke="#9197c7" stroke-width="1.51"/><path d="M752,558L689,736L869,683Z" fill="#9395c6" stroke="#9395c6" stroke-width="1.51"/><path d="M776,1183L687,1308L859,1274Z" fill="#85629a" stroke="#85629a" stroke-width="1.51"/><path d="M584,1282L412,1341L687,1308Z" fill="#866999" stroke="#866999" stroke-width="1.51"/><path d="M555,368L573,587L752,558Z" fill="#99add2" stroke="#99add2" stroke-width="1.51"/><path d="M573,587L689,736L752,558Z" fill="#969fcb" stroke="#969fcb" stroke-width="1.51"/><path d="M555,368L752,558L762,350Z" fill="#99b1d4" stroke="#99b1d4" stroke-width="1.51"/><path d="M595,-72L681,116L772,-89Z" fill="#bacee4" stroke="#bacee4" stroke-width="1.51"/><path d="M620,288L762,350L775,226Z" fill="#a0bad9" stroke="#a0bad9" stroke-width="1.51"/><path d="M584,1282L687,1308L776,1183Z" fill="#87679d" stroke="#87679d" stroke-width="1.51"/><path d="M578,1084L584,1282L776,1183Z" fill="#946ea7" stroke="#946ea7" stroke-width="1.51"/><path d="M699,994L578,1084L776,1183Z" fill="#9674af" stroke="#9674af" stroke-width="1.51"/><path d="M681,116L620,288L775,226Z" fill="#a7c1dd" stroke="#a7c1dd" stroke-width="1.51"/><path d="M720,-174L595,-72L772,-89Z" fill="#c0d3e7" stroke="#c0d3e7" stroke-width="1.51"/><path d="M620,288L555,368L762,350Z" fill="#9fbcda" stroke="#9fbcda" stroke-width="1.51"/><path d="M595,-72L553,63L681,116Z" fill="#b9cfe4" stroke="#b9cfe4" stroke-width="1.51"/><path d="M695,873L563,938L699,994Z" fill="#9782bc" stroke="#9782bc" stroke-width="1.51"/><path d="M561,-187L595,-72L720,-174Z" fill="#c5d8e9" stroke="#c5d8e9" stroke-width="1.51"/><path d="M573,587L529,681L689,736Z" fill="#9a9ecb" stroke="#9a9ecb" stroke-width="1.51"/><path d="M689,736L563,893L695,873Z" fill="#978cc1" stroke="#978cc1" stroke-width="1.51"/><path d="M563,893L563,938L695,873Z" fill="#9987bf" stroke="#9987bf" stroke-width="1.51"/><path d="M563,938L578,1084L699,994Z" fill="#997eb8" stroke="#997eb8" stroke-width="1.51"/><path d="M553,63L620,288L681,116Z" fill="#afc7e0" stroke="#afc7e0" stroke-width="1.51"/><path d="M529,681L563,893L689,736Z" fill="#9a93c6" stroke="#9a93c6" stroke-width="1.51"/><path d="M236,1302L100,1322L412,1341Z" fill="#94739d" stroke="#94739d" stroke-width="1.51"/><path d="M529,681L456,847L563,893Z" fill="#9e93c5" stroke="#9e93c5" stroke-width="1.51"/><path d="M555,368L391,430L573,587Z" fill="#a1b6d7" stroke="#a1b6d7" stroke-width="1.51"/><path d="M578,1084L476,1159L584,1282Z" fill="#9a72aa" stroke="#9a72aa" stroke-width="1.51"/><path d="M487,-5L553,63L595,-72Z" fill="#c0d4e7" stroke="#c0d4e7" stroke-width="1.51"/><path d="M393,247L555,368L620,288Z" fill="#a8c3de" stroke="#a8c3de" stroke-width="1.51"/><path d="M553,63L393,247L620,288Z" fill="#b1c9e1" stroke="#b1c9e1" stroke-width="1.51"/><path d="M424,58L393,247L553,63Z" fill="#bad0e4" stroke="#bad0e4" stroke-width="1.51"/><path d="M391,430L395,577L573,587Z" fill="#a1b2d4" stroke="#a1b2d4" stroke-width="1.51"/><path d="M563,938L459,1013L578,1084Z" fill="#9d80b9" stroke="#9d80b9" stroke-width="1.51"/><path d="M561,-187L487,-5L595,-72Z" fill="#c6d9e9" stroke="#c6d9e9" stroke-width="1.51"/><path d="M476,1159L412,1341L584,1282Z" fill="#916fa0" stroke="#916fa0" stroke-width="1.51"/><path d="M387,-213L487,-5L561,-187Z" fill="#ccddeb" stroke="#ccddeb" stroke-width="1.51"/><path d="M471,654L529,681L573,587Z" fill="#9da3cd" stroke="#9da3cd" stroke-width="1.51"/><path d="M459,1013L476,1159L578,1084Z" fill="#9e7bb3" stroke="#9e7bb3" stroke-width="1.51"/><path d="M395,577L471,654L573,587Z" fill="#a0a9d0" stroke="#a0a9d0" stroke-width="1.51"/><path d="M456,847L459,1013L563,938Z" fill="#a088c0" stroke="#a088c0" stroke-width="1.51"/><path d="M456,847L563,938L563,893Z" fill="#9e8ac1" stroke="#9e8ac1" stroke-width="1.51"/><path d="M471,654L456,847L529,681Z" fill="#a09cca" stroke="#a09cca" stroke-width="1.51"/><path d="M393,247L391,430L555,368Z" fill="#aac2de" stroke="#aac2de" stroke-width="1.51"/><path d="M487,-5L424,58L553,63Z" fill="#bfd3e7" stroke="#bfd3e7" stroke-width="1.51"/><path d="M338,218L393,247L424,58Z" fill="#bacfe4" stroke="#bacfe4" stroke-width="1.51"/><path d="M305,141L338,218L424,58Z" fill="#bed2e5" stroke="#bed2e5" stroke-width="1.51"/><path d="M456,847L287,1030L459,1013Z" fill="#a588bf" stroke="#a588bf" stroke-width="1.51"/><path d="M318,699L456,847L471,654Z" fill="#a39ecb" stroke="#a39ecb" stroke-width="1.51"/><path d="M236,1302L412,1341L476,1159Z" fill="#9572a1" stroke="#9572a1" stroke-width="1.51"/><path d="M459,1013L287,1030L476,1159Z" fill="#a480b6" stroke="#a480b6" stroke-width="1.51"/><path d="M235,-37L424,58L487,-5Z" fill="#c8d9ea" stroke="#c8d9ea" stroke-width="1.51"/><path d="M387,-213L235,-37L487,-5Z" fill="#d0dfed" stroke="#d0dfed" stroke-width="1.51"/><path d="M247,857L287,1030L456,847Z" fill="#a890c4" stroke="#a890c4" stroke-width="1.51"/><path d="M232,1117L236,1302L476,1159Z" fill="#a379ad" stroke="#a379ad" stroke-width="1.51"/><path d="M287,1030L232,1117L476,1159Z" fill="#a77fb5" stroke="#a77fb5" stroke-width="1.51"/><path d="M395,577L318,699L471,654Z" fill="#a4a8d0" stroke="#a4a8d0" stroke-width="1.51"/><path d="M273,337L391,430L393,247Z" fill="#afc7e0" stroke="#afc7e0" stroke-width="1.51"/><path d="M318,699L247,857L456,847Z" fill="#a79ac9" stroke="#a79ac9" stroke-width="1.51"/><path d="M391,430L309,515L395,577Z" fill="#a7b7d7" stroke="#a7b7d7" stroke-width="1.51"/><path d="M231,-208L235,-37L387,-213Z" fill="#d8e5f1" stroke="#d8e5f1" stroke-width="1.51"/><path d="M235,-37L305,141L424,58Z" fill="#c7d9ea" stroke="#c7d9ea" stroke-width="1.51"/><path d="M338,218L273,337L393,247Z" fill="#b6cce3" stroke="#b6cce3" stroke-width="1.51"/><path d="M309,515L318,699L395,577Z" fill="#a7afd3" stroke="#a7afd3" stroke-width="1.51"/><path d="M273,337L309,515L391,430Z" fill="#adc0dc" stroke="#adc0dc" stroke-width="1.51"/><path d="M231,-208L177,-103L235,-37Z" fill="#dae7f1" stroke="#dae7f1" stroke-width="1.51"/><path d="M175,830L247,857L318,699Z" fill="#ac9ecb" stroke="#ac9ecb" stroke-width="1.51"/><path d="M309,515L180,651L318,699Z" fill="#abafd4" stroke="#abafd4" stroke-width="1.51"/><path d="M305,141L128,204L338,218Z" fill="#c0d4e7" stroke="#c0d4e7" stroke-width="1.51"/><path d="M128,204L273,337L338,218Z" fill="#bcd0e5" stroke="#bcd0e5" stroke-width="1.51"/><path d="M232,1117L152,1169L236,1302Z" fill="#a87daf" stroke="#a87daf" stroke-width="1.51"/><path d="M247,857L112,943L287,1030Z" fill="#ae91c5" stroke="#ae91c5" stroke-width="1.51"/><path d="M235,-37L96,133L305,141Z" fill="#cbdceb" stroke="#cbdceb" stroke-width="1.51"/><path d="M118,552L180,651L309,515Z" fill="#aeb7d8" stroke="#aeb7d8" stroke-width="1.51"/><path d="M273,337L132,340L309,515Z" fill="#b3c6e0" stroke="#b3c6e0" stroke-width="1.51"/><path d="M132,340L118,552L309,515Z" fill="#b2c2dd" stroke="#b2c2dd" stroke-width="1.51"/><path d="M180,651L175,830L318,699Z" fill="#aea5cf" stroke="#aea5cf" stroke-width="1.51"/><path d="M96,133L128,204L305,141Z" fill="#c7d8e9" stroke="#c7d8e9" stroke-width="1.51"/><path d="M128,204L132,340L273,337Z" fill="#bcd1e5" stroke="#bcd1e5" stroke-width="1.51"/><path d="M112,943L232,1117L287,1030Z" fill="#ae8abe" stroke="#ae8abe" stroke-width="1.51"/><path d="M-175,-225L-69,-161L164,-204Z" fill="#eaf3f8" stroke="#eaf3f8" stroke-width="1.51"/><path d="M164,-204L177,-103L231,-208Z" fill="#deeaf3" stroke="#deeaf3" stroke-width="1.51"/><path d="M112,943L152,1169L232,1117Z" fill="#b088bb" stroke="#b088bb" stroke-width="1.51"/><path d="M152,1169L100,1322L236,1302Z" fill="#a17aa6" stroke="#a17aa6" stroke-width="1.51"/><path d="M175,830L112,943L247,857Z" fill="#b099c9" stroke="#b099c9" stroke-width="1.51"/><path d="M177,-103L96,133L235,-37Z" fill="#d4e3ef" stroke="#d4e3ef" stroke-width="1.51"/><path d="M0,-70L96,133L177,-103Z" fill="#dae6f1" stroke="#dae6f1" stroke-width="1.51"/><path d="M26,1284L-147,1280L100,1322Z" fill="#a47ea6" stroke="#a47ea6" stroke-width="1.51"/><path d="M25,552L118,552L132,340Z" fill="#b7c4df" stroke="#b7c4df" stroke-width="1.51"/><path d="M26,1284L100,1322L152,1169Z" fill="#a57da9" stroke="#a57da9" stroke-width="1.51"/><path d="M112,943L-3,1097L152,1169Z" fill="#b48cbe" stroke="#b48cbe" stroke-width="1.51"/><path d="M9,640L-57,888L175,830Z" fill="#b7a7d1" stroke="#b7a7d1" stroke-width="1.51"/><path d="M164,-204L0,-70L177,-103Z" fill="#dfebf3" stroke="#dfebf3" stroke-width="1.51"/><path d="M9,640L175,830L180,651Z" fill="#b3acd3" stroke="#b3acd3" stroke-width="1.51"/><path d="M118,552L9,640L180,651Z" fill="#b4b6d8" stroke="#b4b6d8" stroke-width="1.51"/><path d="M-57,888L112,943L175,830Z" fill="#b69ccb" stroke="#b69ccb" stroke-width="1.51"/><path d="M-111,790L-57,888L9,640Z" fill="#bbaad2" stroke="#bbaad2" stroke-width="1.51"/><path d="M-34,344L25,552L132,340Z" fill="#bccce3" stroke="#bccce3" stroke-width="1.51"/><path d="M-69,-161L0,-70L164,-204Z" fill="#e5eff6" stroke="#e5eff6" stroke-width="1.51"/><path d="M128,204L2,236L132,340Z" fill="#c4d7e8" stroke="#c4d7e8" stroke-width="1.51"/><path d="M-3,1097L26,1284L152,1169Z" fill="#b184b4" stroke="#b184b4" stroke-width="1.51"/><path d="M0,-70L-25,142L96,133Z" fill="#d6e4ef" stroke="#d6e4ef" stroke-width="1.51"/><path d="M-57,888L-32,937L112,943Z" fill="#b89bcb" stroke="#b89bcb" stroke-width="1.51"/><path d="M-32,937L-3,1097L112,943Z" fill="#b894c6" stroke="#b894c6" stroke-width="1.51"/><path d="M25,552L9,640L118,552Z" fill="#b7bbdb" stroke="#b7bbdb" stroke-width="1.51"/><path d="M2,236L-34,344L132,340Z" fill="#c2d6e8" stroke="#c2d6e8" stroke-width="1.51"/><path d="M96,133L2,236L128,204Z" fill="#cadbea" stroke="#cadbea" stroke-width="1.51"/><path d="M-25,142L2,236L96,133Z" fill="#cedeed" stroke="#cedeed" stroke-width="1.51"/><path d="M-219,116L-25,142L0,-70Z" fill="#dae7f1" stroke="#dae7f1" stroke-width="1.51"/><path d="M-185,-106L-219,116L0,-70Z" fill="#e3edf5" stroke="#e3edf5" stroke-width="1.51"/><path d="M-159,533L9,640L25,552Z" fill="#babfdc" stroke="#babfdc" stroke-width="1.51"/><path d="M-34,344L-159,533L25,552Z" fill="#bec9e1" stroke="#bec9e1" stroke-width="1.51"/><path d="M-3,1097L-117,1167L26,1284Z" fill="#b586b5" stroke="#b586b5" stroke-width="1.51"/><path d="M-117,1167L-147,1280L26,1284Z" fill="#ae82ad" stroke="#ae82ad" stroke-width="1.51"/><path d="M-207,402L-159,533L-34,344Z" fill="#c3d0e5" stroke="#c3d0e5" stroke-width="1.51"/><path d="M-32,937L-194,1006L-3,1097Z" fill="#bb94c5" stroke="#bb94c5" stroke-width="1.51"/><path d="M-141,254L-34,344L2,236Z" fill="#c8daea" stroke="#c8daea" stroke-width="1.51"/><path d="M-216,680L-111,790L9,640Z" fill="#bdb3d7" stroke="#bdb3d7" stroke-width="1.51"/><path d="M-159,533L-216,680L9,640Z" fill="#bdbddb" stroke="#bdbddb" stroke-width="1.51"/><path d="M-194,1006L-117,1167L-3,1097Z" fill="#bc8fbf" stroke="#bc8fbf" stroke-width="1.51"/><path d="M-25,142L-141,254L2,236Z" fill="#cedeec" stroke="#cedeec" stroke-width="1.51"/><path d="M-69,-161L-185,-106L0,-70Z" fill="#e7f1f6" stroke="#e7f1f6" stroke-width="1.51"/><path d="M-219,116L-141,254L-25,142Z" fill="#d3e2ee" stroke="#d3e2ee" stroke-width="1.51"/><path d="M-57,888L-194,1006L-32,937Z" fill="#bc9bcb" stroke="#bc9bcb" stroke-width="1.51"/><path d="M-141,254L-207,402L-34,344Z" fill="#c6d9ea" stroke="#c6d9ea" stroke-width="1.51"/><path d="M-111,790L-194,1006L-57,888Z" fill="#bda1ce" stroke="#bda1ce" stroke-width="1.51"/><path d="M-175,-225L-185,-106L-69,-161Z" fill="#edf5f9" stroke="#edf5f9" stroke-width="1.51"/><path d="M-216,680L-194,1006L-111,790Z" fill="#bfa8d2" stroke="#bfa8d2" stroke-width="1.51"/><path d="M-194,1006L-147,1280L-117,1167Z" fill="#bc8aba" stroke="#bc8aba" stroke-width="1.51"/><path d="M-219,116L-207,402L-141,254Z" fill="#cfdeec" stroke="#cfdeec" stroke-width="1.51"/><path d="M-207,402L-216,680L-159,533Z" fill="#c0c7e1" stroke="#c0c7e1" stroke-width="1.51"/><path d="M-219,116L-185,-106L-175,-225Z" fill="#e9f2f8" stroke="#e9f2f8" stroke-width="1.51"/><path d="M-219,116L-216,680L-207,402Z" fill="#c7d5e8" stroke="#c7d5e8" stroke-width="1.51"/></svg>