<svg class="uk-preserve" xmlns="http://www.w3.org/2000/svg" viewBox="0 0 151.609 201.556"><g fill="#151513"><path d="M29.08 166.948a2.116 2.116 0 0 0-.686-1.625 2.55 2.55 0 0 0-1.802-.635H5.238a1.905 1.905 0 0 0-1.498.597 2.044 2.044 0 0 0-.533 1.41 2.173 2.173 0 0 0 .533 1.46 1.865 1.865 0 0 0 1.498.621h17.824l-19.55 28.057a3.073 3.073 0 0 0-.559 1.726 2.27 2.27 0 0 0 .736 1.714 3.02 3.02 0 0 0 2.158.699h20.948a1.916 1.916 0 0 0 1.523-.61 2.125 2.125 0 0 0 .533-1.447 2.078 2.078 0 0 0-.533-1.435 1.938 1.938 0 0 0-1.523-.596h-17.9l19.55-28.082a3.305 3.305 0 0 0 .635-1.854zM56.756 196.884H39.998v-12.569h15.234a1.947 1.947 0 0 0 1.511-.596 2.094 2.094 0 0 0 .013-2.806 1.957 1.957 0 0 0-1.524-.584H39.998v-11.553h16.098a1.885 1.885 0 0 0 1.498-.61 2.125 2.125 0 0 0 .533-1.446 2.078 2.078 0 0 0-.533-1.435 1.906 1.906 0 0 0-1.498-.597H37.28a2.253 2.253 0 0 0-1.714.75 2.47 2.47 0 0 0-.698 1.739v31.306a2.348 2.348 0 0 0 .774 1.74 2.471 2.471 0 0 0 1.765.748h19.348a1.906 1.906 0 0 0 1.498-.596 2.078 2.078 0 0 0 .533-1.435 2.125 2.125 0 0 0-.533-1.447 1.885 1.885 0 0 0-1.498-.61zM93.547 164.688a2.465 2.465 0 0 0-1.676.597 2.087 2.087 0 0 0-.686 1.663v26.66l-18.484-26.914a4.662 4.662 0 0 0-1.638-1.498 3.903 3.903 0 0 0-1.84-.508 2.723 2.723 0 0 0-2.07.876 3.358 3.358 0 0 0-.825 2.4v30.748a2.068 2.068 0 0 0 .698 1.663 2.477 2.477 0 0 0 1.663.597 2.527 2.527 0 0 0 1.676-.597 2.053 2.053 0 0 0 .711-1.663v-26.33l18.56 26.914a3.72 3.72 0 0 0 1.422 1.244 3.825 3.825 0 0 0 1.727.432 3.04 3.04 0 0 0 2.222-.89 3.201 3.201 0 0 0 .901-2.386v-30.748a2.053 2.053 0 0 0-.71-1.663 2.493 2.493 0 0 0-1.651-.597zM122.847 168.015a6.307 6.307 0 0 0-1.866-2.857 4.828 4.828 0 0 0-5.002 0 6.299 6.299 0 0 0-1.866 2.857l-12.06 29.935a2.686 2.686 0 0 0-.204.94 1.981 1.981 0 0 0 .775 1.6 2.708 2.708 0 0 0 1.765.634 2.347 2.347 0 0 0 2.36-1.676l2.997-7.719h17.469l2.996 7.72a2.33 2.33 0 0 0 2.336 1.675 2.759 2.759 0 0 0 1.777-.635 1.971 1.971 0 0 0 .787-1.6 2.697 2.697 0 0 0-.203-.939zm-11.654 20.033l7.287-18.764 7.287 18.764zM144.328 164.663a2.709 2.709 0 0 0-1.815.66 2.244 2.244 0 0 0-.775 1.803v31.383a2.24 2.24 0 0 0 .75 1.79 2.645 2.645 0 0 0 1.79.647 2.765 2.765 0 0 0 1.827-.635 2.215 2.215 0 0 0 .762-1.802v-31.383a2.273 2.273 0 0 0-.749-1.816 2.647 2.647 0 0 0-1.79-.647z"/></g><g fill="#151513"><path d="M90.289.433L.532 151.625h63.021L151.258.433H90.289zM-.122.433v88.523L51.202.433H-.122zM151.731 60.801l-53.523 90.824h53.523V60.801z"/></g></svg>