<svg class="uk-preserve" id="logo-sv" xmlns="http://www.w3.org/2000/svg" viewBox="0 0 151.60892 201.55643">
  <g>
    <path d="M29.07991,166.94811a2.11556,2.11556,0,0,0-.68554-1.625,2.54963,2.54963,0,0,0-1.80274-.63477H5.23812a1.90546,1.90546,0,0,0-1.49805.59668,2.04443,2.04443,0,0,0-.5332,1.40918,2.17348,2.17348,0,0,0,.5332,1.46,1.86482,1.86482,0,0,0,1.49805.62207H23.06234L3.51155,196.83287a3.07263,3.07263,0,0,0-.55859,1.72656,2.26984,2.26984,0,0,0,.73633,1.71387,3.02081,3.02081,0,0,0,2.1582.69824H26.79476a1.916,1.916,0,0,0,1.52343-.60937,2.12538,2.12538,0,0,0,.53321-1.44727,2.07805,2.07805,0,0,0-.53321-1.43457,1.9377,1.9377,0,0,0-1.52343-.59668H8.89437l19.55078-28.082A3.30535,3.30535,0,0,0,29.07991,166.94811Z" style="fill: #151513"/>
    <path d="M56.75569,196.88365H39.99788V184.31529H55.23226a1.94675,1.94675,0,0,0,1.51074-.59668,2.09352,2.09352,0,0,0,.01269-2.80566,1.95738,1.95738,0,0,0-1.52343-.584H39.99788V168.77623H56.09554a1.88518,1.88518,0,0,0,1.498-.60937,2.12544,2.12544,0,0,0,.5332-1.44727,2.07809,2.07809,0,0,0-.5332-1.43457,1.90615,1.90615,0,0,0-1.498-.59668H37.28109a2.25267,2.25267,0,0,0-1.71387.749,2.47038,2.47038,0,0,0-.69824,1.73926v31.30664a2.34751,2.34751,0,0,0,.77441,1.73926,2.4711,2.4711,0,0,0,1.76465.749H56.75569a1.90612,1.90612,0,0,0,1.498-.59668,2.078,2.078,0,0,0,.5332-1.43457,2.12536,2.12536,0,0,0-.5332-1.44726A1.88519,1.88519,0,0,0,56.75569,196.88365Z" style="fill: #151513"/>
    <path d="M93.54671,164.68834a2.46491,2.46491,0,0,0-1.67578.59668,2.08749,2.08749,0,0,0-.68555,1.66309v26.66015L72.701,166.6942a4.6624,4.6624,0,0,0-1.6377-1.49805,3.90349,3.90349,0,0,0-1.84082-.50781,2.72309,2.72309,0,0,0-2.06933.876,3.35791,3.35791,0,0,0-.8252,2.39941v30.74805a2.06835,2.06835,0,0,0,.69824,1.66308,2.477,2.477,0,0,0,1.66309.59668,2.52715,2.52715,0,0,0,1.67578-.59668,2.05324,2.05324,0,0,0,.71094-1.66308V172.3817l18.56054,26.91406a3.72008,3.72008,0,0,0,1.42188,1.24414,3.8252,3.8252,0,0,0,1.72656.43164,3.04077,3.04077,0,0,0,2.22168-.88867,3.20118,3.20118,0,0,0,.90137-2.38672v-30.748a2.05326,2.05326,0,0,0-.71094-1.66309A2.49293,2.49293,0,0,0,93.54671,164.68834Z" style="fill: #151513"/>
    <path d="M122.84749,168.01451a6.30679,6.30679,0,0,0-1.86621-2.85644,4.82815,4.82815,0,0,0-5.00195,0,6.29888,6.29888,0,0,0-1.86621,2.85644l-12.06055,29.93555a2.68581,2.68581,0,0,0-.20313.93945,1.9812,1.9812,0,0,0,.77442,1.59961,2.7084,2.7084,0,0,0,1.76465.63477,2.34738,2.34738,0,0,0,2.36133-1.67578l2.99609-7.71875h17.46875l2.99609,7.71875a2.33058,2.33058,0,0,0,2.33594,1.67578,2.75894,2.75894,0,0,0,1.77734-.63477,1.97141,1.97141,0,0,0,.78711-1.59961,2.69688,2.69688,0,0,0-.20312-.93945Zm-11.6543,20.03321L118.4803,169.284l7.28711,18.76368Z" style="fill: #151513"/>
    <path d="M144.328,164.663a2.70857,2.70857,0,0,0-1.81543.66016,2.24385,2.24385,0,0,0-.77441,1.80273v31.38281a2.24046,2.24046,0,0,0,.749,1.79,2.64515,2.64515,0,0,0,1.79.64746,2.76463,2.76463,0,0,0,1.82812-.63476,2.21528,2.21528,0,0,0,.76172-1.80274V167.12584a2.27252,2.27252,0,0,0-.749-1.81543A2.64692,2.64692,0,0,0,144.328,164.663Z" style="fill: #151513"/>
  </g>
  <g>
    <polygon points="90.289 0.433 0.532 151.625 63.553 151.625 151.258 0.433 90.289 0.433" style="fill: #151513"/>
    <polygon points="-0.122 0.433 -0.122 88.956 51.202 0.433 -0.122 0.433" style="fill: #151513"/>
    <polygon points="151.731 60.801 98.208 151.625 151.731 151.625 151.731 60.801" style="fill: #151513"/>
  </g>
</svg>
