<svg version="1.1" id="anilink" xmlns="http://www.w3.org/2000/svg" xmlns:xlink="http://www.w3.org/1999/xlink" x="0px" y="0px"
	 viewBox="0 0 512 215.7" style="enable-background:new 0 0 512 215.7;" xml:space="preserve">
<path class="front" fill="currentColor" d="M201,214.7l-93,0C48.3,214.8,0,167,0,107.9C0,48.9,48.3,1.1,108,1.1l93,0c1.4,0,2.7,0,4.1,0.1c8.6,0.3,12.8,10.3,7,16.6
	c-2.7,2.9-5.3,5.9-7.7,9.1c-1.9,2.4-4.8,3.9-7.9,3.9c-19.4,0-88.3,0-88.5,0c-43.2,0-78.1,34.5-78.1,77.2c0,42.7,34.9,77.2,78.1,77.2
	H201h0.4c42.9-0.2,77.7-34.8,77.7-77.2c0-9.5-1.8-18.7-5-27.1c-1.5-3.9-0.4-8.2,2.7-10.9c3.2-2.8,6.8-5.3,10.6-7.2
	c5.1-2.6,11.5-0.2,13.6,5c5.1,12.4,8,26,8,40.3C309,166.8,260.6,214.7,201,214.7L201,214.7z M203,107.9c0,14.2,2.8,27.8,8,40.3
	c2.2,5.3,8.5,7.6,13.6,5c3.8-2,7.4-4.4,10.6-7.2c3.1-2.7,4.1-7.1,2.7-10.9c-3.2-8.4-5-17.6-5-27.1c0-42.4,34.8-77,77.7-77.2h0.4H404
	c43.2,0,78.1,34.5,78.1,77.2c0,42.7-34.9,77.2-78.1,77.2c-0.2,0-69.1,0-88.5,0c-3.1,0-6,1.5-7.9,3.9c-2.4,3.1-5,6.2-7.7,9.1
	c-5.8,6.2-1.5,16.2,7,16.6c1.4,0.1,2.7,0.1,4.1,0.1l93,0c59.7,0,108-47.8,108-106.8c0-59-48.3-106.8-108-106.8l-93,0
	C251.4,1.1,203,49,203,107.9L203,107.9z"/>
</svg>
