<svg id="cherry" xmlns="http://www.w3.org/2000/svg" viewBox="0 0 168.399 202.906">
  <title>cherry</title>
  <path d="M40.859,152.3a46.6,46.6,0,1,0,91.272-9.138c-.173-.1-.355-.191-.527-.281-3.57-1.881-7.067-3.879-10.474-6.032-3.315-2.1-6.549-4.324-9.674-6.695q-3.433-2.629-6.685-5.495a102.024,102.024,0,0,1-8.157-8.085A53.849,53.849,0,0,1,54.493,150.8a53.142,53.142,0,0,1-13.534.391c-.037.372-.073.736-.1,1.108M108.768,33.443q6.853,18.027,14.1,35.908,3.6,8.815,7.294,17.6c.618,1.471,1.245,2.952,1.872,4.423.318.745.626,1.49.953,2.226.155.372.309.745.473,1.117l.054.136c.046.109-.09.082-.154.091a2.689,2.689,0,0,1-.718.055,2.906,2.906,0,0,1-2.38-1.508c-.372-.7-.754-1.408-1.117-2.107q-8.625-16.161-16.45-32.692-4.129-8.775-8-17.677-1.935-4.483-3.824-9c-.627-1.517-1.263-3.043-1.88-4.56-.318-.772-.627-1.535-.936-2.307-.263-.672-1.145-2.126-.736-3.025a8.429,8.429,0,0,1,.863-1.235c.218-.327.427-.672.618-1.018a12.513,12.513,0,0,0,.954-2.234,12.737,12.737,0,0,0,.617-4.815,13.074,13.074,0,1,0-25.806,3.643c.091.382.191.763.318,1.135.345,1.1-.373,1.563-.945,2.235-.545.627-1.081,1.263-1.608,1.9-2.143,2.552-4.178,5.177-6.131,7.884a136.58,136.58,0,0,0-7.739,12.027q-1.785,3.12-3.407,6.322c-.272.536-.527,1.072-.8,1.617-.127.263-.254.536-.391.808a1.662,1.662,0,0,1-1.962,1.09c-1.09-.136-2.18-.227-3.27-.281a46.5,46.5,0,1,0,17.223,4.269c-.237-.109-.473-.218-.7-.318a1.27,1.27,0,0,1-.9-1.472,1.9,1.9,0,0,1,.218-.663c.064-.127.127-.245.191-.372.254-.509.508-1.008.772-1.508q.79-1.485,1.608-2.97a126.843,126.843,0,0,1,7.176-11.391c1.508-2.144,3.079-4.233,4.732-6.277q1.213-1.526,2.5-3.016c.209-.245.418-.49.636-.735.7-.809,1.4-.609,2.271-.409.327.082.663.145,1,.2a4.041,4.041,0,0,1,1.553.281c.673.373,1.109,1.763,1.363,2.326.291.663.6,1.326.9,1.989s.6,1.317.9,1.98c.154.327.308.654.463.99a1.649,1.649,0,0,1,.181,1.063,2.524,2.524,0,0,1-.163.445c-.263.572-.509,1.154-.754,1.735-.491,1.145-.954,2.307-1.39,3.47A77.127,77.127,0,0,0,84.6,54.69c-.209,1.144-.372,2.289-.518,3.442-.036.291-.072.573-.109.863-.009.073-.009.146-.018.218,0,.037-.063.073-.018.128h.018c0,.009.009.018.018.027a.647.647,0,0,0,.109.1l.409.409.809.835q1.606,1.7,3.07,3.543A53.927,53.927,0,0,1,99.557,90.3a54.859,54.859,0,0,1,.49,9.3c-.054,1.508-.172,3.016-.345,4.524-.091.735-.2,1.48-.309,2.216-.063.363-.127.718-.19,1.09-.037.173-.064.363-.1.536-.355,1.808,1.235,2.117,2.062,3.052a105.293,105.293,0,0,0,24.162,20.138,174.41,174.41,0,0,0,34.89,16.46c.845.3,1.7.6,2.544.89.218.073.436.145.644.218.037.009.091.1.109.027,0-.009.01-.009.01-.018a.17.17,0,0,1,.018-.072.693.693,0,0,1,.036-.146c.018-.1.036-.209.055-.3.054-.2.09-.4.145-.6.172-.781.345-1.572.509-2.362.336-1.553.635-3.115.926-4.687.563-3.052,1.045-6.113,1.444-9.2a148.015,148.015,0,0,0,1.227-17.595c.136-17.4-3.089-35.644-13.09-50.677-11.045-16.614-27.478-25.207-46.026-29.649" fill="#dc143c"/>
</svg>
