<svg id="here" class="svg-inline--fa" xmlns="http://www.w3.org/2000/svg" viewBox="0 0 512 512">
  <title>Hier Icon</title>
  <circle id="smallround" cx="256" cy="256" r="24" fill="#e11a27"/>
  <path id="biground" d="M256,41C137.259,41,41,137.259,41,256s96.259,215,215,215,215-96.259,215-215S374.741,41,256,41Zm0,398.305A183.305,183.305,0,1,1,439.305,256,183.3,183.3,0,0,1,256,439.305Z" fill="#cca217"/>
  <path id="cruz" d="M268.93,143.117H243.3a3.009,3.009,0,0,1-3-3V4.3a3.009,3.009,0,0,1,3-3h25.63a3.009,3.009,0,0,1,3,3V140.117A3.009,3.009,0,0,1,268.93,143.117Zm3,364.5V371.8a3.009,3.009,0,0,0-3-3H243.3a3.009,3.009,0,0,0-3,3V507.613a3.009,3.009,0,0,0,3,3h25.63A3.009,3.009,0,0,0,271.93,507.613ZM507.213,240.685H371.4a3.009,3.009,0,0,0-3,3v25.63a3.009,3.009,0,0,0,3,3H507.213a3.009,3.009,0,0,0,3-3v-25.63A3.009,3.009,0,0,0,507.213,240.685Zm-367.3,0H4.1a3.009,3.009,0,0,0-3,3v25.63a3.009,3.009,0,0,0,3,3H139.917a3.009,3.009,0,0,0,3-3v-25.63A3.009,3.009,0,0,0,139.917,240.685Z" fill="#e11a27"/>
</svg>
