<svg id="g-amazon" xmlns="http://www.w3.org/2000/svg" viewBox="0 0 512 512">
  <title>Link zu amazon.de</title>
  <path class="eck" d="M464,480.5H410.67432v-48H458a6.01766,6.01766,0,0,0,6-6V86.5a6.01761,6.01761,0,0,0-6-6H410.67432v-48H464a48.01238,48.01238,0,0,1,48,48V432.5A48.01238,48.01238,0,0,1,464,480.5Zm-416,0h53.32568v-48H54a6.01766,6.01766,0,0,1-6-6V86.5a6.01761,6.01761,0,0,1,6-6h47.32568v-48H48a48.01238,48.01238,0,0,0-48,48V432.5A48.01238,48.01238,0,0,0,48,480.5Z" />
  <path fill="currentColor" class="amazon" d="M351.78129,302.89494c-7.47022-10.36158-15.45808-18.77765-15.45808-37.9835V201.07027c0-27.05124,1.89328-51.89815-18.05184-70.52066-15.70424-15.09478-41.76927-20.41132-61.70173-20.41132-38.98159,0-82.50246,14.55023-91.63167,62.73939-.98542,5.10916,2.76235,7.83273,6.1207,8.55854l39.69553,4.31844c3.73432-.19471,6.4191-3.85146,7.11879-7.547,3.41059-16.58677,17.31258-24.60075,32.93925-24.60075,8.44219,0,18.02572,3.12565,23.01774,10.63386,5.74553,8.45485,4.96669,19.98391,4.96669,29.7487V199.306c-23.757,2.646-54.81564,4.42214-77.05533,14.20038-25.66374,11.0874-43.70212,33.70384-43.70212,66.96681,0,42.5869,26.85653,63.86729,61.35109,63.86729,29.13923,0,45.0643-6.87343,67.55094-29.78748,7.46943,10.76367,9.88114,16.00264,23.52351,27.31086a8.41767,8.41767,0,0,0,9.6611-.9601l.10369.091c8.15725-7.28817,23.0312-20.20394,31.42193-27.21984C354.98372,311.06485,354.4265,306.6166,351.78129,302.89494Zm-72.9585-61.9091h-.01266c0,15.97652.376,29.25559-7.66414,43.45518-6.51013,11.55438-16.87171,18.64863-28.34773,18.64863-15.74382,0-24.92527-11.98258-24.92527-29.72336,0-34.90931,31.31825-41.2635,60.9498-41.2635Z" />
  <path fill="#323232" class="schweif" d="M368.86336,352.4196c-35.63607,19.08891-74.37153,28.28322-109.61857,28.28322-52.22216,0-102.7974-18.06443-143.6985-48.05943-3.59214-2.61953-6.23762,1.99707-3.255,5.3947,37.93142,43.1316,88.0009,69.06761,143.63365,69.06761,39.69507,0,85.7704-15.74317,117.568-45.31021C378.758,356.90654,374.2451,349.54073,368.86336,352.4196Zm8.68857,28.7371c-1.18008,2.94373,1.34867,4.14976,4.02008,1.90629,17.36417-14.52418,21.85108-44.94711,18.29785-49.33031-3.52729-4.35726-33.87243-8.118-52.39074,4.88895-2.853,1.99706-2.36017,4.75926.804,4.37021,10.43925-1.24493,33.652-4.046,37.77581,1.27086C390.19574,349.57958,381.45531,371.41771,377.55193,381.1567Z" />
</svg>
