<svg xmlns="http://www.w3.org/2000/svg" viewBox="0 0 512 512">
  <title>Externer Link</title>
  <path class="eck" d="M0,432V80A48.01238,48.01238,0,0,1,48,32h53.32568V80H54a6.01761,6.01761,0,0,0-6,6V426a6.01765,6.01765,0,0,0,6,6h47.32568v48H48A48.01238,48.01238,0,0,1,0,432Zm512,0V80a48.01238,48.01238,0,0,0-48-48H410.67432V80H458a6.01761,6.01761,0,0,1,6,6V426a6.01765,6.01765,0,0,1-6,6H410.67432v48H464A48.01238,48.01238,0,0,0,512,432Z" />
  <path fill="currentColor" class="arrowup" d="M187.93392,351.77428l-28.15008-28.41784a12.03528,12.03528,0,0,1,.08033-16.97037l82.41173-81.63521L195.12452,177.151a12.02166,12.02166,0,0,1,8.58225-20.4657l140.00558.66271a12.01071,12.01071,0,0,1,11.96378,12.07758l-.66271,140.00558a12.00019,12.00019,0,0,1-20.546,8.38812L287.316,270.21939l-82.41172,81.63522A12.03527,12.03527,0,0,1,187.93392,351.77428Z" />
</svg>
