<svg id="contact" xmlns="http://www.w3.org/2000/svg" viewBox="0 0 32 32">
  <title>kontakt</title>
  <path id="grBlase" d="M18.8,0A12.7,12.7,0,0,0,9.734,3.733,12.876,12.876,0,0,0,5.7,12.366c0,4.3,1.209,10.067,8.3,13a17.1,17.1,0,0,0,3.734.967V32l10.532-9.567A13.048,13.048,0,0,0,32,12.673,13.294,13.294,0,0,0,18.8,0Zm0,22.133c-5.736,0-8.774-5.218-8.774-8.933,0-6.39,5.575-8.933,9.041-8.933,4.559,0,8.812,4.123,8.812,8.49C27.879,18.245,24.042,22.133,18.8,22.133Z" fill="#cca217"/>
  <path id="klBlase" d="M15.666,21.491a8.058,8.058,0,0,0-2.137-6.947,8.737,8.737,0,0,0-3.474-2.138,7.55,7.55,0,0,0-4.008-.267,8.777,8.777,0,0,0-3.741,2.138,7.983,7.983,0,0,0,0,11.223c1.336,1.87,5.611,6.413,5.611,6.413V27.9a7.871,7.871,0,0,0,5.612-2.4A7.648,7.648,0,0,0,15.666,21.491Z" fill="#e11a27"/>
</svg>
