<svg id="logo" xmlns="http://www.w3.org/2000/svg" viewBox="0 0 32 32">
  <title>skype</title>
  <path id="blau" d="M31.079,19.41a14.967,14.967,0,0,0,.352-3.23A15.157,15.157,0,0,0,16.169,1.13a15.578,15.578,0,0,0-2.609.22A8.89,8.89,0,0,0,8.852.01,8.791,8.791,0,0,0,0,8.74a8.611,8.611,0,0,0,1.216,4.415A14.823,14.823,0,0,0,16.168,30.982a15.569,15.569,0,0,0,2.794-.252,9.139,9.139,0,0,0,4.185,1.285A8.789,8.789,0,0,0,32,23.286,8.6,8.6,0,0,0,31.079,19.41Z" fill="#00aff0"/>
  <path id="weiss" d="M23.13,22.323a5.778,5.778,0,0,1-2.586,1.968A10.37,10.37,0,0,1,16.51,25a9.724,9.724,0,0,1-4.616-.973,5.974,5.974,0,0,1-2.1-1.868,4.018,4.018,0,0,1-.8-2.273A1.451,1.451,0,0,1,9.477,18.8a1.71,1.71,0,0,1,1.23-.458,1.518,1.518,0,0,1,1.025.356,2.745,2.745,0,0,1,.715,1.055,6.763,6.763,0,0,0,.781,1.389,3.105,3.105,0,0,0,1.178.92,4.73,4.73,0,0,0,2,.361,4.794,4.794,0,0,0,2.766-.729,2.154,2.154,0,0,0,1.064-1.821,1.838,1.838,0,0,0-.574-1.4,3.761,3.761,0,0,0-1.483-.824q-.908-.286-2.431-.606a18.893,18.893,0,0,1-3.408-1.025,5.473,5.473,0,0,1-2.179-1.6,3.928,3.928,0,0,1-.806-2.521,4.083,4.083,0,0,1,.851-2.55,5.327,5.327,0,0,1,2.462-1.715,10.851,10.851,0,0,1,3.789-.6,10.2,10.2,0,0,1,3.011.4,6.543,6.543,0,0,1,2.106,1.057A4.483,4.483,0,0,1,22.8,9.858a2.978,2.978,0,0,1,.387,1.41A1.686,1.686,0,0,1,21.5,12.907a1.469,1.469,0,0,1-1-.3,4.054,4.054,0,0,1-.74-.991,4.542,4.542,0,0,0-1.238-1.535,3.852,3.852,0,0,0-2.32-.552,4.268,4.268,0,0,0-2.391.6,1.718,1.718,0,0,0-.91,1.441,1.392,1.392,0,0,0,.31.9,2.5,2.5,0,0,0,.852.651,6.123,6.123,0,0,0,1.094.429q.553.154,1.832.45,1.6.344,2.893.759a9.237,9.237,0,0,1,2.205,1.007,4.282,4.282,0,0,1,1.418,1.5,4.483,4.483,0,0,1,.51,2.223A4.824,4.824,0,0,1,23.13,22.323Z" fill="#fff"/>
</svg>
