<svg id="vlogo" xmlns="http://www.w3.org/2000/svg" viewBox="0 0 32 32">
  <title>vcard</title>
  <circle id="gold" cx="16" cy="16" r="16" fill="#e11a27"/>
  <circle cx="16" cy="10.772" r="6.045" fill="#fff"/>
  <g>
    <path d="M22.924,17.338l-2.694-.673a7.257,7.257,0,0,1-8.46,0l-2.694.673a3.627,3.627,0,0,0-2.545,2.325H25.469A3.627,3.627,0,0,0,22.924,17.338Z" fill="#fff"/>
    <path d="M8.142,24.673H23.858A1.808,1.808,0,0,0,25.657,23H6.343A1.808,1.808,0,0,0,8.142,24.673Z" fill="#fff"/>
    <path d="M6.329,20.857V22H25.671V20.857c0-.066-.013-.129-.016-.194H6.345C6.342,20.728,6.329,20.791,6.329,20.857Z" fill="#fff"/>
  </g>
</svg>
