<svg id="logo" xmlns="http://www.w3.org/2000/svg" viewBox="0 0 32 36.39">
  <title>whatsapp</title>
  <rect id="gruen" y="2.195" width="32" height="32" rx="6.497" ry="6.497" fill="#4af179"/>
  <path id="chat" d="M4.844,29.523l1.618-5.909a11.408,11.408,0,1,1,9.885,5.711h-.005a11.4,11.4,0,0,1-5.451-1.388Zm6.327-3.65.346.2A9.461,9.461,0,0,0,16.343,27.4h0a9.477,9.477,0,1,0-8.032-4.441l.226.358-.958,3.5Z" fill="#fff"/>
  <path id="hoerer" d="M13.5,13.146c-.232-.555-.467-.48-.641-.489s-.357-.01-.547-.01a1.05,1.05,0,0,0-.76.357,3.2,3.2,0,0,0-1,2.377,5.536,5.536,0,0,0,1.164,2.947,12.7,12.7,0,0,0,4.868,4.3,16.487,16.487,0,0,0,1.625.6,3.909,3.909,0,0,0,1.8.112,2.931,2.931,0,0,0,1.924-1.354,2.369,2.369,0,0,0,.166-1.355c-.071-.119-.261-.19-.546-.333s-1.686-.832-1.947-.927-.452-.143-.642.143-.736.927-.9,1.117-.333.214-.618.071a7.79,7.79,0,0,1-2.292-1.414,8.6,8.6,0,0,1-1.585-1.974c-.166-.285-.018-.439.125-.581.128-.128.285-.333.427-.5a1.922,1.922,0,0,0,.285-.475.525.525,0,0,0-.023-.5C14.3,15.119,13.733,13.717,13.5,13.146Z" fill="#fff" fill-rule="evenodd"/>
</svg>
